<svg width="40" height="40" fill="none" xmlns="http://www.w3.org/2000/svg"><g clip-path="url(#a)"><path d="M20 40c11.046 0 20-8.954 20-20C40 8.955 31.046 0 20 0S0 8.955 0 20c0 11.046 8.954 20 20 20Z" fill="#00B900"/><path d="M33.303 18.8c0-5.953-5.967-10.796-13.303-10.796-7.337 0-13.304 4.843-13.304 10.797 0 5.336 4.734 9.806 11.127 10.65.433.093 1.023.286 1.173.656.134.337.087.864.044 1.204l-.19 1.14c-.057.336-.267 1.316 1.153.716 1.42-.596 7.66-4.51 10.453-7.723 1.927-2.113 2.85-4.26 2.85-6.643" fill="#fff"/><path d="M17.296 15.924h-.933a.26.26 0 0 0-.26.26v5.796c0 .144.116.26.26.26h.933a.26.26 0 0 0 .26-.26v-5.796a.26.26 0 0 0-.26-.26Zm6.424 0h-.934a.26.26 0 0 0-.26.26v3.443l-2.657-3.586-.02-.027-.017-.017-.003-.003-.013-.01-.007-.007c-.003 0-.01-.007-.013-.01 0 0-.007 0-.007-.003-.003 0-.01-.007-.013-.007 0 0-.007 0-.007-.003a.026.026 0 0 1-.013-.007h-.01c-.007 0-.01-.003-.017-.006h-.01c-.007 0-.01 0-.013-.004h-.98a.26.26 0 0 0-.26.26v5.797c0 .143.116.26.26.26h.933a.26.26 0 0 0 .26-.26V18.55l2.66 3.594c.017.027.04.047.067.063l.017.01s.003 0 .006.004c.003 0 .007.003.014.006.003 0 .006.003.013.007h.006c.007 0 .014.003.017.006h.003c.02.007.044.01.067.01h.933a.26.26 0 0 0 .26-.26v-5.796a.26.26 0 0 0-.26-.26m-8.675 4.85H12.51V16.18a.26.26 0 0 0-.26-.26h-.933a.26.26 0 0 0-.26.26v5.797c0 .07.026.133.073.18l.003.003.004.004c.046.043.11.073.18.073h3.726a.26.26 0 0 0 .26-.26v-.933a.26.26 0 0 0-.26-.26m13.83-3.41a.26.26 0 0 0 .26-.26v-.934a.26.26 0 0 0-.26-.26h-3.727a.252.252 0 0 0-.18.074l-.003.003a.266.266 0 0 0-.073.18v5.797c0 .07.026.133.073.18l.003.003.004.003c.046.044.11.074.18.074h3.726a.26.26 0 0 0 .26-.26v-.934a.26.26 0 0 0-.26-.26H26.34v-.98h2.536a.26.26 0 0 0 .26-.26v-.933a.26.26 0 0 0-.26-.26H26.34v-.98h2.536l-.003.007Z" fill="#00B900"/></g><defs><clipPath id="a"><path fill="#fff" d="M0 0h40v40H0z"/></clipPath></defs></svg>