<svg width="117" height="32" fill="none" xmlns="http://www.w3.org/2000/svg"><g clip-path="url(#a)"><path d="M12.113 25.02a2.891 2.891 0 1 0 0-5.783 2.891 2.891 0 0 0 0 5.783Z" fill="#004664"/><path d="M26.939 13.99S18.829 7.06 15.874.61L8.196 16.56s3.766-4.813 6.384-6.94c1.964-1.595 3.977-.26 7.42 1.812 3.18 1.915 4.939 2.559 4.939 2.559Z" fill="#AC002D"/><path d="M18.495 30.15s-5.28-1.517-7.955-2.093c-2.782-.6-3.83-1.796-4.15-3.538-.32-1.742.812-9.748.739-10.273 0 0-2.59 6.344-3.304 8.222C3.171 24.189 2.248 26.253 0 30.22c0 0 11.693.273 18.495-.072Zm17.336-2.3s-4.011 1.19-7.951 2.085c-4.135.94-9.735 1.456-9.735 1.456 7.049-2.477 9.184-5.5 9.184-5.5-.39-4.143-3.587-10.081-3.587-10.081s6.735 6.475 12.089 12.04Z" fill="#AC002D"/><path d="M17.08 17.838a2.89 2.89 0 1 0 .001-5.781 2.89 2.89 0 0 0 0 5.781Zm4.306 7.895a2.89 2.89 0 1 0 0-5.781 2.89 2.89 0 0 0 0 5.781Z" fill="#004664"/><path d="M50.476 8.105c-.625.035-1.08.104-1.368.208a.934.934 0 0 0-.586.599c-.104.295-.156.773-.156 1.433v12.924c0 .66.052 1.138.156 1.433.104.295.3.491.586.586.287.096.743.143 1.368.143h1.902c1.077 0 1.898-.152 2.462-.456.564-.304.977-.795 1.238-1.472.261-.677.452-1.659.573-2.944h.6c-.06.71-.086 1.424-.079 2.137 0 .99.061 2.102.182 3.335-1.18-.052-3.17-.078-5.967-.078-3.335 0-5.854.026-7.556.078v-.521c.625-.035 1.081-.104 1.368-.208a.938.938 0 0 0 .586-.599c.104-.295.156-.773.156-1.433V10.346c0-.66-.052-1.138-.156-1.433a.936.936 0 0 0-.586-.599c-.287-.104-.743-.174-1.368-.208v-.522c.73.052 1.841.078 3.335.078a54.9 54.9 0 0 0 3.31-.078v.521Zm8.76 17.288c-.53-.547-.795-1.307-.795-2.28 0-.782.212-1.424.638-1.928a4.808 4.808 0 0 1 1.511-1.199c.582-.295 1.351-.608 2.306-.938.973-.33 1.693-.634 2.163-.912.47-.278.704-.652.704-1.12V15.4c0-1.007-.213-1.698-.638-2.072-.426-.373-1.02-.56-1.785-.56-1.216 0-2.076.313-2.579.938.347.087.638.27.873.547.234.278.352.625.352 1.042 0 .434-.139.778-.417 1.029-.278.252-.634.378-1.068.378-.487 0-.85-.152-1.094-.456-.243-.304-.365-.673-.365-1.108 0-.417.1-.764.3-1.042.2-.278.5-.556.9-.834.416-.295.946-.538 1.588-.73a7.38 7.38 0 0 1 2.111-.287c1.355 0 2.38.322 3.075.964.434.4.725.882.873 1.446.147.565.221 1.307.221 2.228v7.243c0 .435.061.747.182.938.121.191.33.286.625.286.208 0 .404-.047.586-.143.182-.095.378-.23.586-.404l.287.443c-.452.348-.838.595-1.16.743-.322.147-.725.222-1.212.222-.834 0-1.416-.208-1.746-.625-.33-.417-.495-.981-.495-1.694-.52.869-1.12 1.472-1.798 1.811-.678.339-1.442.508-2.293.508-1.094.003-1.907-.27-2.436-.818Zm6.527-2.201v-5.107a1.8 1.8 0 0 1-.652.599c-.278.156-.704.365-1.277.625-.66.278-1.195.543-1.602.795-.409.252-.76.595-1.055 1.029-.296.435-.443.99-.443 1.667 0 .782.191 1.373.573 1.772.382.4.886.599 1.511.599 1.147.001 2.128-.659 2.945-1.979Zm20.13 1.758c.356.252.795.439 1.316.56v.521a51.768 51.768 0 0 0-3.127-.078c-.938 0-1.833.026-2.684.078v-.521c.417-.017.72-.069.912-.156.191-.087.287-.217.287-.391 0-.174-.087-.382-.26-.626l-3.805-5.732c-.504-.764-.93-1.263-1.277-1.498-.348-.234-.834-.369-1.459-.404v6.566c0 .66.052 1.138.156 1.433.104.295.3.495.586.599.287.104.743.174 1.368.208v.521c-.799-.052-1.902-.078-3.309-.078-1.494 0-2.605.026-3.335.078v-.521c.625-.035 1.081-.104 1.368-.208a.938.938 0 0 0 .586-.599c.104-.295.156-.773.156-1.433V10.346c0-.66-.052-1.138-.156-1.433a.936.936 0 0 0-.586-.599c-.287-.104-.743-.174-1.368-.208v-.522c.73.052 1.841.078 3.335.078a54.9 54.9 0 0 0 3.31-.078v.521c-.626.035-1.082.104-1.369.208a.941.941 0 0 0-.585.6c-.104.295-.156.773-.156 1.433v5.837c1.268-.052 2.258-.538 2.97-1.459l2.502-3.179c.886-1.094 1.33-1.928 1.33-2.501 0-.608-.54-.921-1.617-.938v-.522c.99.052 1.99.078 2.996.078.955 0 1.694-.026 2.215-.078v.521a4.668 4.668 0 0 0-1.616.56c-.504.286-.99.734-1.459 1.342l-4.247 5.446 6.045 8.468c.295.435.621.778.977 1.029Zm12.012-2.045c-.313.956-.899 1.776-1.759 2.462-.86.686-1.898 1.029-3.114 1.029-1.233 0-2.302-.283-3.205-.847-.903-.564-1.594-1.355-2.072-2.371s-.716-2.193-.716-3.531c0-1.511.243-2.823.73-3.935.486-1.111 1.172-1.967 2.058-2.566.886-.599 1.92-.899 3.101-.899 1.564 0 2.766.474 3.61 1.42.841.947 1.263 2.384 1.263 4.312h-8.156a15.827 15.827 0 0 0-.078 1.668c0 1.146.186 2.145.56 2.996.373.851.87 1.507 1.485 1.967.616.46 1.264.69 1.941.69.834 0 1.572-.2 2.215-.599.642-.399 1.181-1.068 1.616-2.006l.521.21Zm-7.19-8.963c-.592.799-.957 1.98-1.095 3.543h5.68c.035-1.355-.16-2.484-.586-3.387-.426-.903-1.055-1.355-1.889-1.355-.817 0-1.52.4-2.11 1.199Zm19.334 8.963c-.313.956-.899 1.776-1.759 2.462-.86.686-1.898 1.029-3.114 1.029-1.233 0-2.302-.283-3.205-.847-.903-.564-1.594-1.355-2.072-2.371s-.716-2.193-.716-3.531c0-1.511.243-2.823.73-3.935.486-1.111 1.172-1.967 2.058-2.566.886-.599 1.919-.899 3.101-.899 1.564 0 2.766.474 3.609 1.42.842.947 1.264 2.384 1.264 4.312h-8.156a16.017 16.017 0 0 0-.078 1.668c0 1.146.186 2.145.56 2.996.373.851.869 1.507 1.485 1.967.616.46 1.264.69 1.941.69.834 0 1.572-.2 2.215-.599.642-.399 1.181-1.068 1.616-2.006l.521.21Zm-7.191-8.963c-.591.799-.956 1.98-1.094 3.543h5.68c.035-1.355-.161-2.484-.586-3.387-.426-.903-1.055-1.355-1.889-1.355-.817 0-1.521.4-2.111 1.199Zm11.871 9.666c0 .713.147 1.203.443 1.472.295.27.808.404 1.537.404v.547c-1.598-.069-2.649-.104-3.153-.104s-1.555.035-3.153.104v-.547c.73 0 1.242-.135 1.537-.404.295-.269.443-.76.443-1.472V8.731c0-.799-.148-1.381-.443-1.746-.296-.365-.808-.547-1.537-.547v-.547c.538.052 1.077.078 1.615.078 1.094 0 1.998-.121 2.71-.365l.001 18.004Z" fill="#000"/></g><defs><clipPath id="a"><path fill="#fff" transform="translate(0 .61)" d="M0 0h116.709v30.781H0z"/></clipPath></defs></svg>