<svg width="508" height="757" viewBox="0 0 508 757" fill="none" xmlns="http://www.w3.org/2000/svg">
<rect y="138.394" width="24" height="636.261" rx="12" transform="rotate(-13.8643 0 138.394)" fill="url(#paint0_linear_4038_3091)"/>
<path d="M435.017 239.9C450.807 245.227 453.538 266.396 439.618 275.557L154.742 463.04C143.194 470.64 127.601 464.512 124.319 451.082L48.7698 141.994C45.026 126.677 59.6517 113.254 74.5916 118.294L435.017 239.9Z" fill="url(#paint1_linear_4038_3091)"/>
<mask id="path-3-inside-1_4038_3091" fill="white">
<path d="M115 184.319H272V220.319H115V184.319Z"/>
</mask>
<path d="M272 218.319H115V222.319H272V218.319Z" fill="white" mask="url(#path-3-inside-1_4038_3091)"/>
<path d="M121.36 196.951C121.318 197.203 121.262 197.805 121.234 198.169C121.22 198.477 121.206 198.813 121.192 199.163C122.116 199.051 123.04 198.869 123.768 198.659L123.81 200.395C123.012 200.577 122.046 200.717 121.136 200.829C121.122 201.249 121.122 201.683 121.122 202.089C121.122 202.257 121.122 202.425 121.122 202.607C122.074 202.369 123.04 202.243 123.81 202.243C125.966 202.243 127.66 203.363 127.66 205.295C127.66 206.947 126.792 208.193 124.566 208.753C123.922 208.893 123.306 208.935 122.732 208.977L122.088 207.171C122.718 207.171 123.32 207.157 123.81 207.073C124.944 206.863 125.84 206.303 125.84 205.281C125.84 204.329 125 203.769 123.782 203.769C122.914 203.769 122.004 203.909 121.15 204.161C121.178 205.267 121.206 206.359 121.206 206.835C121.206 208.571 120.59 209.033 119.666 209.033C118.308 209.033 116.39 207.857 116.39 206.373C116.39 205.155 117.79 203.881 119.512 203.139C119.498 202.803 119.498 202.467 119.498 202.145C119.498 201.753 119.498 201.361 119.498 200.969C119.232 200.983 118.98 200.997 118.756 200.997C117.818 200.997 117.272 200.983 116.796 200.927L116.768 199.233C117.594 199.331 118.196 199.345 118.7 199.345C118.952 199.345 119.232 199.331 119.512 199.317C119.526 198.827 119.526 198.421 119.526 198.183C119.526 197.889 119.47 197.203 119.428 196.951H121.36ZM125.35 198.463C126.428 198.981 128.052 199.905 128.794 200.437L127.954 201.865C127.282 201.291 125.448 200.241 124.58 199.821L125.35 198.463ZM118.112 206.303C118.112 206.737 118.77 207.115 119.134 207.115C119.386 207.115 119.582 207.003 119.582 206.527C119.582 206.177 119.568 205.533 119.54 204.777C118.686 205.239 118.112 205.813 118.112 206.303ZM137.124 197.259C137.04 197.623 136.942 198.071 136.872 198.421C136.774 198.841 136.676 199.359 136.578 199.863C137.04 199.835 137.46 199.807 137.754 199.807C139.238 199.807 140.288 200.465 140.288 202.481C140.288 204.133 140.092 206.401 139.49 207.619C139.028 208.599 138.244 208.907 137.194 208.907C136.648 208.907 135.99 208.809 135.514 208.711L135.206 206.863C135.752 207.017 136.55 207.157 136.928 207.157C137.39 207.157 137.754 207.017 137.978 206.555C138.356 205.757 138.538 204.063 138.538 202.677C138.538 201.557 138.062 201.403 137.18 201.403C136.956 201.403 136.606 201.431 136.214 201.459C135.682 203.587 134.646 206.905 133.358 208.963L131.538 208.235C132.896 206.401 133.862 203.573 134.366 201.655C133.862 201.711 133.428 201.767 133.162 201.795C132.77 201.865 132.028 201.963 131.608 202.033L131.44 200.129C131.944 200.171 132.42 200.143 132.938 200.129C133.372 200.115 134.03 200.073 134.744 200.017C134.94 198.953 135.052 197.931 135.038 197.049L137.124 197.259ZM141.94 198.575C142.808 199.779 143.984 202.453 144.404 203.783L142.626 204.609C142.262 203.055 141.268 200.521 140.274 199.289L141.94 198.575ZM156.556 197.469C156.528 197.777 156.514 198.113 156.514 198.435C156.5 198.729 156.5 199.457 156.5 200.241C157.34 200.171 158.124 200.087 158.74 199.975L158.726 201.795C158.124 201.865 157.354 201.921 156.514 201.977C156.514 202.201 156.514 202.411 156.514 202.551C156.514 205.855 156.262 207.885 153.476 209.663L151.852 208.389C152.398 208.151 153.098 207.703 153.49 207.269C154.554 206.149 154.792 204.903 154.792 202.537C154.792 202.397 154.792 202.229 154.792 202.047C154.316 202.061 153.826 202.061 153.364 202.061C152.748 202.061 151.894 202.019 151.194 201.977V200.213C151.88 200.311 152.566 200.353 153.322 200.353C153.784 200.353 154.274 200.339 154.764 200.325C154.75 199.555 154.722 198.813 154.694 198.435C154.666 198.099 154.596 197.693 154.54 197.469H156.556ZM149.752 197.707C149.64 198.057 149.486 198.561 149.43 198.855C149.08 200.409 148.576 203.349 148.954 205.085C149.136 204.651 149.402 203.965 149.626 203.461L150.508 204.021C150.088 205.225 149.724 206.639 149.542 207.423C149.5 207.647 149.458 207.955 149.458 208.109C149.472 208.263 149.486 208.501 149.5 208.697L147.932 208.851C147.624 208.011 147.134 206.051 147.134 204.315C147.134 202.019 147.414 199.863 147.596 198.715C147.652 198.337 147.666 197.861 147.68 197.511L149.752 197.707ZM157.662 196.979C157.928 197.539 158.25 198.407 158.404 198.939L157.438 199.261C157.242 198.659 156.99 197.847 156.71 197.273L157.662 196.979ZM159.104 196.531C159.37 197.091 159.706 197.959 159.874 198.491L158.922 198.799C158.712 198.197 158.432 197.399 158.152 196.839L159.104 196.531ZM168.554 198.379C168.442 198.057 168.288 197.553 168.106 197.091L169.996 196.867C170.136 197.609 170.346 198.365 170.584 199.065C171.592 198.911 172.572 198.687 173.454 198.421L173.678 200.185C172.964 200.395 172.068 200.563 171.186 200.689C171.592 201.599 172.082 202.467 172.432 202.971C172.67 203.321 172.936 203.629 173.188 203.909L172.32 205.169C171.536 205.015 169.772 204.833 168.596 204.735L168.736 203.251C169.422 203.307 170.346 203.391 170.78 203.419C170.36 202.747 169.856 201.823 169.464 200.885C167.798 201.011 165.88 201.025 163.486 200.829L163.458 199.037C165.558 199.289 167.35 199.331 168.834 199.233C168.722 198.911 168.638 198.617 168.554 198.379ZM166.258 203.811C165.81 204.469 165.572 205.085 165.572 205.701C165.572 206.877 166.622 207.381 168.54 207.381C170.066 207.381 171.298 207.241 172.292 207.045L172.194 208.809C171.396 208.963 170.136 209.145 168.428 209.145C165.572 209.131 163.766 208.025 163.766 206.009C163.766 205.155 164.032 204.357 164.508 203.405L166.258 203.811ZM180.832 206.737C180.832 207.269 181.336 207.591 182.302 207.591C183.044 207.591 183.534 207.381 183.534 206.569C183.534 206.415 183.534 206.219 183.52 205.967C183.142 205.911 182.764 205.869 182.372 205.869C181.378 205.869 180.832 206.261 180.832 206.737ZM185.214 196.993C185.172 197.273 185.144 197.623 185.13 197.987C185.116 198.127 185.116 198.337 185.116 198.561C186.264 198.505 187.426 198.393 188.658 198.183L188.644 199.793C187.72 199.905 186.446 200.031 185.088 200.101C185.088 200.591 185.088 201.109 185.088 201.543C186.502 201.473 187.692 201.361 188.826 201.207L188.812 202.859C187.552 202.999 186.46 203.097 185.116 203.139C185.144 203.671 185.172 204.245 185.214 204.805C186.978 205.309 188.322 206.247 189.134 206.919L188.126 208.487C187.37 207.787 186.418 207.045 185.298 206.541C185.312 206.737 185.312 206.905 185.312 207.059C185.312 208.249 184.402 209.173 182.554 209.173C180.314 209.173 179.138 208.319 179.138 206.835C179.138 205.421 180.44 204.427 182.596 204.427C182.89 204.427 183.184 204.441 183.464 204.469C183.436 204.035 183.422 203.587 183.408 203.167C183.17 203.167 182.932 203.167 182.68 203.167C181.868 203.167 180.272 203.097 179.348 202.985L179.334 201.333C180.244 201.501 181.966 201.599 182.708 201.599C182.932 201.599 183.156 201.599 183.38 201.599C183.38 201.137 183.38 200.633 183.394 200.157C183.212 200.157 183.044 200.157 182.876 200.157C181.994 200.157 180.37 200.031 179.446 199.905L179.404 198.309C180.412 198.477 182.008 198.617 182.862 198.617C183.044 198.617 183.226 198.617 183.408 198.617C183.408 198.351 183.408 198.127 183.408 197.959C183.408 197.693 183.38 197.259 183.324 196.993H185.214ZM193.222 198.715C193.782 198.701 194.328 198.673 194.594 198.645C195.77 198.547 198.08 198.337 200.642 198.127C202.084 198.001 203.61 197.917 204.604 197.875L204.618 199.667C203.862 199.681 202.658 199.681 201.916 199.863C200.222 200.311 198.948 202.117 198.948 203.783C198.948 206.093 201.104 206.919 203.484 207.045L202.826 208.963C199.886 208.767 197.114 207.199 197.114 204.161C197.114 202.145 198.248 200.549 199.2 199.835C197.884 199.975 195.028 200.283 193.404 200.633L193.222 198.715ZM202.616 201.039C202.966 201.543 203.47 202.397 203.736 202.943L202.672 203.419C202.322 202.649 202.028 202.103 201.58 201.473L202.616 201.039ZM204.184 200.395C204.534 200.885 205.066 201.711 205.36 202.257L204.31 202.761C203.932 202.005 203.61 201.487 203.162 200.871L204.184 200.395ZM208.258 208.319V207.129C211.072 204.609 212.738 202.663 212.738 201.067C212.738 200.017 212.178 199.387 211.184 199.387C210.428 199.387 209.812 199.877 209.28 200.451L208.16 199.331C209.112 198.309 210.036 197.763 211.45 197.763C213.41 197.763 214.712 199.023 214.712 200.955C214.712 202.831 213.158 204.847 211.268 206.695C211.786 206.639 212.472 206.583 212.962 206.583H215.202V208.319H208.258ZM221.43 208.515C219.316 208.515 217.916 206.667 217.916 203.097C217.916 199.513 219.316 197.763 221.43 197.763C223.544 197.763 224.93 199.527 224.93 203.097C224.93 206.667 223.544 208.515 221.43 208.515ZM221.43 206.905C222.326 206.905 222.984 206.009 222.984 203.097C222.984 200.199 222.326 199.359 221.43 199.359C220.534 199.359 219.862 200.199 219.862 203.097C219.862 206.009 220.534 206.905 221.43 206.905ZM230.864 201.963H233.23V201.067H231.144V199.807H233.23V198.883H234.812V199.807H237.01V201.067H234.812V201.963H237.29V203.265H230.864V201.963ZM235.218 205.323H232.88V206.611H235.218V205.323ZM236.758 207.857H232.88V208.613H231.368V204.063H236.758V207.857ZM239.544 197.133V207.689C239.544 208.557 239.362 208.963 238.816 209.243C238.284 209.495 237.472 209.523 236.268 209.523C236.212 209.075 235.988 208.389 235.764 207.969C236.478 208.011 237.304 207.997 237.542 207.997C237.78 207.997 237.878 207.913 237.878 207.675V198.673H230.402V201.977C230.402 204.273 230.178 207.563 228.652 209.593C228.372 209.285 227.672 208.725 227.308 208.543C228.638 206.709 228.75 204.021 228.75 201.977V197.133H239.544ZM246.824 204.959H249.246V202.831H246.824V204.959ZM255.756 204.959V206.555H250.968V209.551H249.246V206.555H242.946V204.959H245.158V201.277H249.246V199.611H246.25C245.676 200.605 245.004 201.501 244.346 202.159C244.024 201.879 243.31 201.319 242.904 201.081C244.164 200.017 245.242 198.225 245.844 196.419L247.538 196.853C247.412 197.245 247.258 197.623 247.076 198.001H254.986V199.611H250.968V201.277H254.664V202.831H250.968V204.959H255.756ZM264.03 204.721L263.652 199.933L263.582 197.847H265.906L265.836 199.933L265.458 204.721H264.03ZM264.744 208.445C264.03 208.445 263.512 207.941 263.512 207.213C263.512 206.471 264.044 205.967 264.744 205.967C265.444 205.967 265.976 206.471 265.976 207.213C265.976 207.941 265.444 208.445 264.744 208.445Z" fill="white"/>
<g filter="url(#filter0_d_4038_3091)">
<path d="M292.166 268.839C296.646 268.839 300.24 270.332 302.946 273.319C305.653 276.259 307.006 280.319 307.006 285.499V308.319H295.106V287.109C295.106 284.496 294.43 282.466 293.076 281.019C291.723 279.572 289.903 278.849 287.616 278.849C285.33 278.849 283.51 279.572 282.156 281.019C280.803 282.466 280.126 284.496 280.126 287.109V308.319H268.156V256.519H280.126V274.509C281.34 272.782 282.996 271.406 285.096 270.379C287.196 269.352 289.553 268.839 292.166 268.839Z" fill="white"/>
<path d="M261.489 298.169V308.319H255.399C251.059 308.319 247.676 307.269 245.249 305.169C242.822 303.022 241.609 299.546 241.609 294.739V279.199H236.849V269.259H241.609V259.739H253.579V269.259H261.419V279.199H253.579V294.879C253.579 296.046 253.859 296.886 254.419 297.399C254.979 297.912 255.912 298.169 257.219 298.169H261.489Z" fill="white"/>
<path d="M174.645 270.819C174.645 259.352 176.845 250.319 181.245 243.719C185.711 237.119 192.878 233.819 202.745 233.819C212.611 233.819 219.745 237.119 224.145 243.719C228.611 250.319 230.845 259.352 230.845 270.819C230.845 282.419 228.611 291.519 224.145 298.119C219.745 304.719 212.611 308.019 202.745 308.019C192.878 308.019 185.711 304.719 181.245 298.119C176.845 291.519 174.645 282.419 174.645 270.819ZM214.045 270.819C214.045 264.086 213.311 258.919 211.845 255.319C210.378 251.652 207.345 249.819 202.745 249.819C198.145 249.819 195.111 251.652 193.645 255.319C192.178 258.919 191.445 264.086 191.445 270.819C191.445 275.352 191.711 279.119 192.245 282.119C192.778 285.052 193.845 287.452 195.445 289.319C197.111 291.119 199.545 292.019 202.745 292.019C205.945 292.019 208.345 291.119 209.945 289.319C211.611 287.452 212.711 285.052 213.245 282.119C213.778 279.119 214.045 275.352 214.045 270.819Z" fill="white"/>
<path d="M116.916 294.619C119.182 292.819 120.216 291.986 120.016 292.119C126.549 286.719 131.682 282.286 135.416 278.819C139.216 275.352 142.416 271.719 145.016 267.919C147.616 264.119 148.916 260.419 148.916 256.819C148.916 254.086 148.282 251.952 147.016 250.419C145.749 248.886 143.849 248.119 141.316 248.119C138.782 248.119 136.782 249.086 135.316 251.019C133.916 252.886 133.216 255.552 133.216 259.019H116.716C116.849 253.352 118.049 248.619 120.316 244.819C122.649 241.019 125.682 238.219 129.416 236.419C133.216 234.619 137.416 233.719 142.016 233.719C149.949 233.719 155.916 235.752 159.916 239.819C163.982 243.886 166.016 249.186 166.016 255.719C166.016 262.852 163.582 269.486 158.716 275.619C153.849 281.686 147.649 287.619 140.116 293.419H167.116V307.319H116.916V294.619Z" fill="white"/>
<path d="M307.774 321.769L301.699 333.519V339.319H297.424V333.519L291.349 321.769H296.199L299.599 329.119L302.974 321.769H307.774Z" fill="white"/>
<path d="M284.116 339.319L280.466 332.694H279.441V339.319H275.166V321.769H282.341C283.724 321.769 284.899 322.011 285.866 322.494C286.849 322.977 287.582 323.644 288.066 324.494C288.549 325.327 288.791 326.261 288.791 327.294C288.791 328.461 288.457 329.502 287.791 330.419C287.141 331.336 286.174 331.986 284.891 332.369L288.941 339.319H284.116ZM279.441 329.669H282.091C282.874 329.669 283.457 329.477 283.841 329.094C284.241 328.711 284.441 328.169 284.441 327.469C284.441 326.802 284.241 326.277 283.841 325.894C283.457 325.511 282.874 325.319 282.091 325.319H279.441V329.669Z" fill="white"/>
<path d="M266.408 336.219H259.858L258.808 339.319H254.333L260.683 321.769H265.633L271.983 339.319H267.458L266.408 336.219ZM265.308 332.919L263.133 326.494L260.983 332.919H265.308Z" fill="white"/>
<path d="M245.202 339.494C243.919 339.494 242.769 339.286 241.752 338.869C240.736 338.452 239.919 337.836 239.302 337.019C238.702 336.202 238.386 335.219 238.352 334.069H242.902C242.969 334.719 243.194 335.219 243.577 335.569C243.961 335.902 244.46 336.069 245.077 336.069C245.71 336.069 246.21 335.927 246.577 335.644C246.944 335.344 247.127 334.936 247.127 334.419C247.127 333.986 246.977 333.627 246.677 333.344C246.394 333.061 246.036 332.827 245.602 332.644C245.186 332.461 244.586 332.252 243.802 332.019C242.669 331.669 241.744 331.319 241.027 330.969C240.311 330.619 239.694 330.102 239.177 329.419C238.661 328.736 238.402 327.844 238.402 326.744C238.402 325.111 238.994 323.836 240.177 322.919C241.361 321.986 242.902 321.519 244.802 321.519C246.736 321.519 248.294 321.986 249.477 322.919C250.661 323.836 251.294 325.119 251.377 326.769H246.752C246.719 326.202 246.511 325.761 246.127 325.444C245.744 325.111 245.252 324.944 244.652 324.944C244.136 324.944 243.719 325.086 243.402 325.369C243.086 325.636 242.927 326.027 242.927 326.544C242.927 327.111 243.194 327.552 243.727 327.869C244.261 328.186 245.094 328.527 246.227 328.894C247.361 329.277 248.277 329.644 248.977 329.994C249.694 330.344 250.31 330.852 250.827 331.519C251.344 332.186 251.602 333.044 251.602 334.094C251.602 335.094 251.344 336.002 250.827 336.819C250.327 337.636 249.594 338.286 248.627 338.769C247.661 339.252 246.519 339.494 245.202 339.494Z" fill="white"/>
<path d="M230.244 339.319L226.594 332.694H225.569V339.319H221.294V321.769H228.469C229.852 321.769 231.027 322.011 231.994 322.494C232.977 322.977 233.71 323.644 234.194 324.494C234.677 325.327 234.919 326.261 234.919 327.294C234.919 328.461 234.585 329.502 233.919 330.419C233.269 331.336 232.302 331.986 231.019 332.369L235.069 339.319H230.244ZM225.569 329.669H228.219C229.002 329.669 229.585 329.477 229.969 329.094C230.369 328.711 230.569 328.169 230.569 327.469C230.569 326.802 230.369 326.277 229.969 325.894C229.585 325.511 229.002 325.319 228.219 325.319H225.569V329.669Z" fill="white"/>
<path d="M210.793 325.194V328.744H216.518V332.044H210.793V335.894H217.268V339.319H206.518V321.769H217.268V325.194H210.793Z" fill="white"/>
<path d="M203.481 321.769L197.256 339.319H191.906L185.681 321.769H190.231L194.581 335.019L198.956 321.769H203.481Z" fill="white"/>
<path d="M182.658 321.769V339.319H178.383V321.769H182.658Z" fill="white"/>
<path d="M174.035 339.319H169.76L162.61 328.494V339.319H158.335V321.769H162.61L169.76 332.644V321.769H174.035V339.319Z" fill="white"/>
<path d="M153.986 339.319H149.711L142.561 328.494V339.319H138.286V321.769H142.561L149.711 332.644V321.769H153.986V339.319Z" fill="white"/>
<path d="M129.528 336.219H122.978L121.928 339.319H117.453L123.803 321.769H128.753L135.103 339.319H130.578L129.528 336.219ZM128.428 332.919L126.253 326.494L124.103 332.919H128.428Z" fill="white"/>
</g>
<path d="M160.296 363.839C161.32 362.954 162.125 362.228 162.712 361.663C163.309 361.087 163.805 360.49 164.2 359.871C164.595 359.252 164.792 358.634 164.792 358.015C164.792 357.375 164.637 356.874 164.328 356.511C164.029 356.148 163.555 355.967 162.904 355.967C162.275 355.967 161.784 356.17 161.432 356.575C161.091 356.97 160.909 357.503 160.888 358.175H159.128C159.16 356.959 159.523 356.031 160.216 355.391C160.92 354.74 161.811 354.415 162.888 354.415C164.051 354.415 164.957 354.735 165.608 355.375C166.269 356.015 166.6 356.868 166.6 357.935C166.6 358.703 166.403 359.444 166.008 360.159C165.624 360.863 165.16 361.498 164.616 362.063C164.083 362.618 163.4 363.263 162.568 363.999L161.848 364.639H166.92V366.159H159.144V364.831L160.296 363.839ZM168.523 360.335C168.523 358.49 168.832 357.05 169.451 356.015C170.08 354.97 171.157 354.447 172.683 354.447C174.208 354.447 175.28 354.97 175.899 356.015C176.528 357.05 176.843 358.49 176.843 360.335C176.843 362.202 176.528 363.663 175.899 364.719C175.28 365.764 174.208 366.287 172.683 366.287C171.157 366.287 170.08 365.764 169.451 364.719C168.832 363.663 168.523 362.202 168.523 360.335ZM175.051 360.335C175.051 359.471 174.992 358.74 174.875 358.143C174.768 357.546 174.544 357.06 174.203 356.687C173.861 356.303 173.355 356.111 172.683 356.111C172.011 356.111 171.504 356.303 171.163 356.687C170.821 357.06 170.592 357.546 170.475 358.143C170.368 358.74 170.315 359.471 170.315 360.335C170.315 361.231 170.368 361.983 170.475 362.591C170.581 363.199 170.805 363.69 171.147 364.063C171.499 364.436 172.011 364.623 172.683 364.623C173.355 364.623 173.861 364.436 174.203 364.063C174.555 363.69 174.784 363.199 174.891 362.591C174.997 361.983 175.051 361.231 175.051 360.335ZM178.773 360.335C178.773 358.49 179.082 357.05 179.701 356.015C180.33 354.97 181.407 354.447 182.933 354.447C184.458 354.447 185.53 354.97 186.149 356.015C186.778 357.05 187.093 358.49 187.093 360.335C187.093 362.202 186.778 363.663 186.149 364.719C185.53 365.764 184.458 366.287 182.933 366.287C181.407 366.287 180.33 365.764 179.701 364.719C179.082 363.663 178.773 362.202 178.773 360.335ZM185.301 360.335C185.301 359.471 185.242 358.74 185.125 358.143C185.018 357.546 184.794 357.06 184.453 356.687C184.111 356.303 183.605 356.111 182.933 356.111C182.261 356.111 181.754 356.303 181.413 356.687C181.071 357.06 180.842 357.546 180.725 358.143C180.618 358.74 180.565 359.471 180.565 360.335C180.565 361.231 180.618 361.983 180.725 362.591C180.831 363.199 181.055 363.69 181.397 364.063C181.749 364.436 182.261 364.623 182.933 364.623C183.605 364.623 184.111 364.436 184.453 364.063C184.805 363.69 185.034 363.199 185.141 362.591C185.247 361.983 185.301 361.231 185.301 360.335ZM196.543 356.223H191.183V359.407C191.407 359.108 191.737 358.858 192.174 358.655C192.623 358.452 193.097 358.351 193.599 358.351C194.495 358.351 195.22 358.543 195.775 358.927C196.34 359.311 196.74 359.796 196.975 360.383C197.22 360.97 197.343 361.588 197.343 362.239C197.343 363.028 197.188 363.732 196.878 364.351C196.58 364.959 196.127 365.439 195.519 365.791C194.921 366.143 194.185 366.319 193.311 366.319C192.148 366.319 191.215 366.031 190.511 365.455C189.807 364.879 189.385 364.116 189.247 363.167H191.023C191.14 363.668 191.401 364.068 191.807 364.367C192.212 364.655 192.719 364.799 193.327 364.799C194.084 364.799 194.649 364.57 195.023 364.111C195.407 363.652 195.599 363.044 195.599 362.287C195.599 361.519 195.407 360.932 195.023 360.527C194.639 360.111 194.073 359.903 193.327 359.903C192.804 359.903 192.361 360.036 191.999 360.303C191.647 360.559 191.391 360.911 191.231 361.359H189.503V354.623H196.543V356.223ZM200.073 356.911H202.377L206.057 360.543L202.377 364.175H200.073L203.769 360.543L200.073 356.911ZM209.511 356.911H211.815L215.495 360.543L211.815 364.175H209.511L213.207 360.543L209.511 356.911ZM218.948 356.911H221.252L224.932 360.543L221.252 364.175H218.948L222.644 360.543L218.948 356.911ZM228.562 363.839C229.586 362.954 230.391 362.228 230.978 361.663C231.575 361.087 232.071 360.49 232.466 359.871C232.86 359.252 233.058 358.634 233.058 358.015C233.058 357.375 232.903 356.874 232.594 356.511C232.295 356.148 231.82 355.967 231.17 355.967C230.54 355.967 230.05 356.17 229.698 356.575C229.356 356.97 229.175 357.503 229.154 358.175H227.394C227.426 356.959 227.788 356.031 228.482 355.391C229.186 354.74 230.076 354.415 231.154 354.415C232.316 354.415 233.223 354.735 233.874 355.375C234.535 356.015 234.866 356.868 234.866 357.935C234.866 358.703 234.668 359.444 234.274 360.159C233.89 360.863 233.426 361.498 232.882 362.063C232.348 362.618 231.666 363.263 230.834 363.999L230.114 364.639H235.186V366.159H227.41V364.831L228.562 363.839ZM236.788 360.335C236.788 358.49 237.097 357.05 237.716 356.015C238.345 354.97 239.423 354.447 240.948 354.447C242.473 354.447 243.545 354.97 244.164 356.015C244.793 357.05 245.108 358.49 245.108 360.335C245.108 362.202 244.793 363.663 244.164 364.719C243.545 365.764 242.473 366.287 240.948 366.287C239.423 366.287 238.345 365.764 237.716 364.719C237.097 363.663 236.788 362.202 236.788 360.335ZM243.316 360.335C243.316 359.471 243.257 358.74 243.14 358.143C243.033 357.546 242.809 357.06 242.468 356.687C242.127 356.303 241.62 356.111 240.948 356.111C240.276 356.111 239.769 356.303 239.428 356.687C239.087 357.06 238.857 357.546 238.74 358.143C238.633 358.74 238.58 359.471 238.58 360.335C238.58 361.231 238.633 361.983 238.74 362.591C238.847 363.199 239.071 363.69 239.412 364.063C239.764 364.436 240.276 364.623 240.948 364.623C241.62 364.623 242.127 364.436 242.468 364.063C242.82 363.69 243.049 363.199 243.156 362.591C243.263 361.983 243.316 361.231 243.316 360.335ZM248.046 363.839C249.07 362.954 249.875 362.228 250.462 361.663C251.059 361.087 251.555 360.49 251.95 359.871C252.345 359.252 252.542 358.634 252.542 358.015C252.542 357.375 252.387 356.874 252.078 356.511C251.779 356.148 251.305 355.967 250.654 355.967C250.025 355.967 249.534 356.17 249.182 356.575C248.841 356.97 248.659 357.503 248.638 358.175H246.878C246.91 356.959 247.273 356.031 247.966 355.391C248.67 354.74 249.561 354.415 250.638 354.415C251.801 354.415 252.707 354.735 253.358 355.375C254.019 356.015 254.35 356.868 254.35 357.935C254.35 358.703 254.153 359.444 253.758 360.159C253.374 360.863 252.91 361.498 252.366 362.063C251.833 362.618 251.15 363.263 250.318 363.999L249.598 364.639H254.67V366.159H246.894V364.831L248.046 363.839ZM256.049 363.887V362.511L261.425 354.799H263.633V362.303H265.121V363.887H263.633V366.319H261.841V363.887H256.049ZM261.921 356.655L258.145 362.303H261.921V356.655Z" fill="white"/>
<defs>
<filter id="filter0_d_4038_3091" x="92.7156" y="213.719" width="239.059" height="153.775" filterUnits="userSpaceOnUse" color-interpolation-filters="sRGB">
<feFlood flood-opacity="0" result="BackgroundImageFix"/>
<feColorMatrix in="SourceAlpha" type="matrix" values="0 0 0 0 0 0 0 0 0 0 0 0 0 0 0 0 0 0 127 0" result="hardAlpha"/>
<feOffset dy="4"/>
<feGaussianBlur stdDeviation="12"/>
<feComposite in2="hardAlpha" operator="out"/>
<feColorMatrix type="matrix" values="0 0 0 0 0 0 0 0 0 0 0 0 0 0 0 0 0 0 0.25 0"/>
<feBlend mode="normal" in2="BackgroundImageFix" result="effect1_dropShadow_4038_3091"/>
<feBlend mode="normal" in="SourceGraphic" in2="effect1_dropShadow_4038_3091" result="shape"/>
</filter>
<linearGradient id="paint0_linear_4038_3091" x1="12" y1="138.394" x2="12" y2="774.655" gradientUnits="userSpaceOnUse">
<stop offset="0.355" stop-color="#BED1DA"/>
<stop offset="1" stop-color="#E7F1F5" stop-opacity="0.1"/>
</linearGradient>
<linearGradient id="paint1_linear_4038_3091" x1="233.925" y1="183.561" x2="302.562" y2="448.364" gradientUnits="userSpaceOnUse">
<stop stop-color="#AC0C2D"/>
<stop offset="1" stop-color="#D33556"/>
</linearGradient>
</defs>
</svg>
