<svg width="890" height="1111" viewBox="0 0 890 1111" fill="none" xmlns="http://www.w3.org/2000/svg">
<mask id="mask0_4012_2970" style="mask-type:alpha" maskUnits="userSpaceOnUse" x="0" y="0" width="890" height="1111">
<rect width="890" height="1111" fill="white"/>
</mask>
<g mask="url(#mask0_4012_2970)">
<rect y="57.9951" width="46" height="1084.72" rx="20" transform="rotate(-13.8643 0 57.9951)" fill="url(#paint0_linear_4012_2970)"/>
<path d="M855.165 258.715C888.098 268.546 894.117 312.59 865.029 330.897L291.927 691.584C268.761 706.164 238.124 693.691 231.728 667.077L94.0715 94.214C86.8674 64.2341 114.861 37.7198 144.406 46.5396L855.165 258.715Z" fill="url(#paint1_linear_4012_2970)"/>
</g>
<mask id="path-4-inside-1_4012_2970" fill="white">
<path d="M275.616 190H544.616V228H275.616V190Z"/>
</mask>
<path d="M544.616 226H275.616V230H544.616V226Z" fill="white" mask="url(#path-4-inside-1_4012_2970)"/>
<path d="M286.447 198.512C286.375 198.944 286.279 199.976 286.231 200.6C286.207 201.128 286.183 201.704 286.159 202.304C287.743 202.112 289.327 201.8 290.575 201.44L290.647 204.416C289.279 204.728 287.623 204.968 286.063 205.16C286.039 205.88 286.039 206.624 286.039 207.32C286.039 207.608 286.039 207.896 286.039 208.208C287.671 207.8 289.327 207.584 290.647 207.584C294.343 207.584 297.247 209.504 297.247 212.816C297.247 215.648 295.759 217.784 291.943 218.744C290.839 218.984 289.783 219.056 288.799 219.128L287.695 216.032C288.775 216.032 289.807 216.008 290.647 215.864C292.591 215.504 294.127 214.544 294.127 212.792C294.127 211.16 292.687 210.2 290.599 210.2C289.111 210.2 287.551 210.44 286.087 210.872C286.135 212.768 286.183 214.64 286.183 215.456C286.183 218.432 285.127 219.224 283.543 219.224C281.215 219.224 277.927 217.208 277.927 214.664C277.927 212.576 280.327 210.392 283.279 209.12C283.255 208.544 283.255 207.968 283.255 207.416C283.255 206.744 283.255 206.072 283.255 205.4C282.799 205.424 282.367 205.448 281.983 205.448C280.375 205.448 279.439 205.424 278.623 205.328L278.575 202.424C279.991 202.592 281.023 202.616 281.887 202.616C282.319 202.616 282.799 202.592 283.279 202.568C283.303 201.728 283.303 201.032 283.303 200.624C283.303 200.12 283.207 198.944 283.135 198.512H286.447ZM293.287 201.104C295.135 201.992 297.919 203.576 299.191 204.488L297.751 206.936C296.599 205.952 293.455 204.152 291.967 203.432L293.287 201.104ZM280.879 214.544C280.879 215.288 282.007 215.936 282.631 215.936C283.063 215.936 283.399 215.744 283.399 214.928C283.399 214.328 283.375 213.224 283.327 211.928C281.863 212.72 280.879 213.704 280.879 214.544ZM313.471 199.04C313.327 199.664 313.159 200.432 313.039 201.032C312.871 201.752 312.703 202.64 312.535 203.504C313.327 203.456 314.047 203.408 314.551 203.408C317.095 203.408 318.895 204.536 318.895 207.992C318.895 210.824 318.559 214.712 317.527 216.8C316.735 218.48 315.391 219.008 313.591 219.008C312.655 219.008 311.527 218.84 310.711 218.672L310.183 215.504C311.119 215.768 312.487 216.008 313.135 216.008C313.927 216.008 314.551 215.768 314.935 214.976C315.583 213.608 315.895 210.704 315.895 208.328C315.895 206.408 315.079 206.144 313.567 206.144C313.183 206.144 312.583 206.192 311.911 206.24C310.999 209.888 309.223 215.576 307.015 219.104L303.895 217.856C306.223 214.712 307.879 209.864 308.743 206.576C307.879 206.672 307.135 206.768 306.679 206.816C306.007 206.936 304.735 207.104 304.015 207.224L303.727 203.96C304.591 204.032 305.407 203.984 306.295 203.96C307.039 203.936 308.167 203.864 309.391 203.768C309.727 201.944 309.919 200.192 309.895 198.68L313.471 199.04ZM321.727 201.296C323.215 203.36 325.231 207.944 325.951 210.224L322.903 211.64C322.279 208.976 320.575 204.632 318.871 202.52L321.727 201.296ZM346.783 199.4C346.735 199.928 346.711 200.504 346.711 201.056C346.687 201.56 346.687 202.808 346.687 204.152C348.127 204.032 349.471 203.888 350.527 203.696L350.503 206.816C349.471 206.936 348.151 207.032 346.711 207.128C346.711 207.512 346.711 207.872 346.711 208.112C346.711 213.776 346.279 217.256 341.503 220.304L338.719 218.12C339.655 217.712 340.855 216.944 341.527 216.2C343.351 214.28 343.759 212.144 343.759 208.088C343.759 207.848 343.759 207.56 343.759 207.248C342.943 207.272 342.103 207.272 341.311 207.272C340.255 207.272 338.791 207.2 337.591 207.128V204.104C338.767 204.272 339.943 204.344 341.239 204.344C342.031 204.344 342.871 204.32 343.711 204.296C343.687 202.976 343.639 201.704 343.591 201.056C343.543 200.48 343.423 199.784 343.327 199.4H346.783ZM335.119 199.808C334.927 200.408 334.663 201.272 334.567 201.776C333.967 204.44 333.103 209.48 333.751 212.456C334.063 211.712 334.519 210.536 334.903 209.672L336.415 210.632C335.695 212.696 335.071 215.12 334.759 216.464C334.687 216.848 334.615 217.376 334.615 217.64C334.639 217.904 334.663 218.312 334.687 218.648L331.999 218.912C331.471 217.472 330.631 214.112 330.631 211.136C330.631 207.2 331.111 203.504 331.423 201.536C331.519 200.888 331.543 200.072 331.567 199.472L335.119 199.808ZM348.679 198.56C349.135 199.52 349.687 201.008 349.951 201.92L348.295 202.472C347.959 201.44 347.527 200.048 347.047 199.064L348.679 198.56ZM351.151 197.792C351.607 198.752 352.183 200.24 352.471 201.152L350.839 201.68C350.479 200.648 349.999 199.28 349.519 198.32L351.151 197.792ZM367.351 200.96C367.159 200.408 366.895 199.544 366.583 198.752L369.823 198.368C370.063 199.64 370.423 200.936 370.831 202.136C372.559 201.872 374.239 201.488 375.751 201.032L376.135 204.056C374.911 204.416 373.375 204.704 371.863 204.92C372.559 206.48 373.399 207.968 373.999 208.832C374.407 209.432 374.863 209.96 375.295 210.44L373.807 212.6C372.463 212.336 369.439 212.024 367.423 211.856L367.663 209.312C368.839 209.408 370.423 209.552 371.167 209.6C370.447 208.448 369.583 206.864 368.911 205.256C366.055 205.472 362.767 205.496 358.663 205.16L358.615 202.088C362.215 202.52 365.287 202.592 367.831 202.424C367.639 201.872 367.495 201.368 367.351 200.96ZM363.415 210.272C362.647 211.4 362.239 212.456 362.239 213.512C362.239 215.528 364.039 216.392 367.327 216.392C369.943 216.392 372.055 216.152 373.759 215.816L373.591 218.84C372.223 219.104 370.063 219.416 367.135 219.416C362.239 219.392 359.143 217.496 359.143 214.04C359.143 212.576 359.599 211.208 360.415 209.576L363.415 210.272ZM388.399 215.288C388.399 216.2 389.263 216.752 390.919 216.752C392.191 216.752 393.031 216.392 393.031 215C393.031 214.736 393.031 214.4 393.007 213.968C392.359 213.872 391.711 213.8 391.039 213.8C389.335 213.8 388.399 214.472 388.399 215.288ZM395.911 198.584C395.839 199.064 395.791 199.664 395.767 200.288C395.743 200.528 395.743 200.888 395.743 201.272C397.711 201.176 399.703 200.984 401.815 200.624L401.791 203.384C400.207 203.576 398.023 203.792 395.695 203.912C395.695 204.752 395.695 205.64 395.695 206.384C398.119 206.264 400.159 206.072 402.103 205.808L402.079 208.64C399.919 208.88 398.047 209.048 395.743 209.12C395.791 210.032 395.839 211.016 395.911 211.976C398.935 212.84 401.239 214.448 402.631 215.6L400.903 218.288C399.607 217.088 397.975 215.816 396.055 214.952C396.079 215.288 396.079 215.576 396.079 215.84C396.079 217.88 394.519 219.464 391.351 219.464C387.511 219.464 385.495 218 385.495 215.456C385.495 213.032 387.727 211.328 391.423 211.328C391.927 211.328 392.431 211.352 392.911 211.4C392.863 210.656 392.839 209.888 392.815 209.168C392.407 209.168 391.999 209.168 391.567 209.168C390.175 209.168 387.439 209.048 385.855 208.856L385.831 206.024C387.391 206.312 390.343 206.48 391.615 206.48C391.999 206.48 392.383 206.48 392.767 206.48C392.767 205.688 392.767 204.824 392.791 204.008C392.479 204.008 392.191 204.008 391.903 204.008C390.391 204.008 387.607 203.792 386.023 203.576L385.951 200.84C387.679 201.128 390.415 201.368 391.879 201.368C392.191 201.368 392.503 201.368 392.815 201.368C392.815 200.912 392.815 200.528 392.815 200.24C392.815 199.784 392.767 199.04 392.671 198.584H395.911ZM409.639 201.536C410.599 201.512 411.535 201.464 411.991 201.416C414.007 201.248 417.967 200.888 422.359 200.528C424.831 200.312 427.447 200.168 429.151 200.096L429.175 203.168C427.879 203.192 425.815 203.192 424.543 203.504C421.639 204.272 419.455 207.368 419.455 210.224C419.455 214.184 423.151 215.6 427.231 215.816L426.103 219.104C421.063 218.768 416.311 216.08 416.311 210.872C416.311 207.416 418.255 204.68 419.887 203.456C417.631 203.696 412.735 204.224 409.951 204.824L409.639 201.536ZM425.743 205.52C426.343 206.384 427.207 207.848 427.663 208.784L425.839 209.6C425.239 208.28 424.735 207.344 423.967 206.264L425.743 205.52ZM428.431 204.416C429.031 205.256 429.943 206.672 430.447 207.608L428.647 208.472C427.999 207.176 427.447 206.288 426.679 205.232L428.431 204.416ZM435.415 218V215.96C440.239 211.64 443.095 208.304 443.095 205.568C443.095 203.768 442.135 202.688 440.431 202.688C439.135 202.688 438.079 203.528 437.167 204.512L435.247 202.592C436.879 200.84 438.463 199.904 440.887 199.904C444.247 199.904 446.479 202.064 446.479 205.376C446.479 208.592 443.815 212.048 440.575 215.216C441.463 215.12 442.639 215.024 443.479 215.024H447.319V218H435.415ZM457.996 218.336C454.372 218.336 451.972 215.168 451.972 209.048C451.972 202.904 454.372 199.904 457.996 199.904C461.62 199.904 463.996 202.928 463.996 209.048C463.996 215.168 461.62 218.336 457.996 218.336ZM457.996 215.576C459.532 215.576 460.66 214.04 460.66 209.048C460.66 204.08 459.532 202.64 457.996 202.64C456.46 202.64 455.308 204.08 455.308 209.048C455.308 214.04 456.46 215.576 457.996 215.576ZM474.169 207.104H478.225V205.568H474.649V203.408H478.225V201.824H480.937V203.408H484.705V205.568H480.937V207.104H485.185V209.336H474.169V207.104ZM481.633 212.864H477.625V215.072H481.633V212.864ZM484.273 217.208H477.625V218.504H475.033V210.704H484.273V217.208ZM489.049 198.824V216.92C489.049 218.408 488.737 219.104 487.801 219.584C486.889 220.016 485.497 220.064 483.433 220.064C483.337 219.296 482.953 218.12 482.569 217.4C483.793 217.472 485.209 217.448 485.617 217.448C486.025 217.448 486.193 217.304 486.193 216.896V201.464H473.377V207.128C473.377 211.064 472.993 216.704 470.377 220.184C469.897 219.656 468.697 218.696 468.073 218.384C470.353 215.24 470.545 210.632 470.545 207.128V198.824H489.049ZM501.529 212.24H505.681V208.592H501.529V212.24ZM516.841 212.24V214.976H508.633V220.112H505.681V214.976H494.881V212.24H498.673V205.928H505.681V203.072H500.545C499.561 204.776 498.409 206.312 497.281 207.44C496.729 206.96 495.505 206 494.809 205.592C496.969 203.768 498.817 200.696 499.849 197.6L502.753 198.344C502.537 199.016 502.273 199.664 501.961 200.312H515.521V203.072H508.633V205.928H514.969V208.592H508.633V212.24H516.841ZM531.025 211.832L530.377 203.624L530.257 200.048H534.241L534.121 203.624L533.473 211.832H531.025ZM532.249 218.216C531.025 218.216 530.137 217.352 530.137 216.104C530.137 214.832 531.049 213.968 532.249 213.968C533.449 213.968 534.361 214.832 534.361 216.104C534.361 217.352 533.449 218.216 532.249 218.216Z" fill="white"/>
<path d="M345.486 493.9C346.766 492.793 347.773 491.887 348.506 491.18C349.253 490.46 349.873 489.713 350.366 488.94C350.859 488.167 351.106 487.393 351.106 486.62C351.106 485.82 350.913 485.193 350.526 484.74C350.153 484.287 349.559 484.06 348.746 484.06C347.959 484.06 347.346 484.313 346.906 484.82C346.479 485.313 346.253 485.98 346.226 486.82H344.026C344.066 485.3 344.519 484.14 345.386 483.34C346.266 482.527 347.379 482.12 348.726 482.12C350.179 482.12 351.313 482.52 352.126 483.32C352.953 484.12 353.366 485.187 353.366 486.52C353.366 487.48 353.119 488.407 352.626 489.3C352.146 490.18 351.566 490.973 350.886 491.68C350.219 492.373 349.366 493.18 348.326 494.1L347.426 494.9H353.766V496.8H344.046V495.14L345.486 493.9ZM355.769 489.52C355.769 487.213 356.156 485.413 356.929 484.12C357.716 482.813 359.062 482.16 360.969 482.16C362.876 482.16 364.216 482.813 364.989 484.12C365.776 485.413 366.169 487.213 366.169 489.52C366.169 491.853 365.776 493.68 364.989 495C364.216 496.307 362.876 496.96 360.969 496.96C359.062 496.96 357.716 496.307 356.929 495C356.156 493.68 355.769 491.853 355.769 489.52ZM363.929 489.52C363.929 488.44 363.856 487.527 363.709 486.78C363.576 486.033 363.296 485.427 362.869 484.96C362.442 484.48 361.809 484.24 360.969 484.24C360.129 484.24 359.496 484.48 359.069 484.96C358.642 485.427 358.356 486.033 358.209 486.78C358.076 487.527 358.009 488.44 358.009 489.52C358.009 490.64 358.076 491.58 358.209 492.34C358.342 493.1 358.622 493.713 359.049 494.18C359.489 494.647 360.129 494.88 360.969 494.88C361.809 494.88 362.442 494.647 362.869 494.18C363.309 493.713 363.596 493.1 363.729 492.34C363.862 491.58 363.929 490.64 363.929 489.52ZM368.581 489.52C368.581 487.213 368.968 485.413 369.741 484.12C370.528 482.813 371.875 482.16 373.781 482.16C375.688 482.16 377.028 482.813 377.801 484.12C378.588 485.413 378.981 487.213 378.981 489.52C378.981 491.853 378.588 493.68 377.801 495C377.028 496.307 375.688 496.96 373.781 496.96C371.875 496.96 370.528 496.307 369.741 495C368.968 493.68 368.581 491.853 368.581 489.52ZM376.741 489.52C376.741 488.44 376.668 487.527 376.521 486.78C376.388 486.033 376.108 485.427 375.681 484.96C375.255 484.48 374.621 484.24 373.781 484.24C372.941 484.24 372.308 484.48 371.881 484.96C371.455 485.427 371.168 486.033 371.021 486.78C370.888 487.527 370.821 488.44 370.821 489.52C370.821 490.64 370.888 491.58 371.021 492.34C371.155 493.1 371.435 493.713 371.861 494.18C372.301 494.647 372.941 494.88 373.781 494.88C374.621 494.88 375.255 494.647 375.681 494.18C376.121 493.713 376.408 493.1 376.541 492.34C376.675 491.58 376.741 490.64 376.741 489.52ZM390.794 484.38H384.094V488.36C384.374 487.987 384.787 487.673 385.334 487.42C385.894 487.167 386.487 487.04 387.114 487.04C388.234 487.04 389.141 487.28 389.834 487.76C390.541 488.24 391.041 488.847 391.334 489.58C391.641 490.313 391.794 491.087 391.794 491.9C391.794 492.887 391.601 493.767 391.214 494.54C390.841 495.3 390.274 495.9 389.514 496.34C388.767 496.78 387.847 497 386.754 497C385.301 497 384.134 496.64 383.254 495.92C382.374 495.2 381.847 494.247 381.674 493.06H383.894C384.041 493.687 384.367 494.187 384.874 494.56C385.381 494.92 386.014 495.1 386.774 495.1C387.721 495.1 388.427 494.813 388.894 494.24C389.374 493.667 389.614 492.907 389.614 491.96C389.614 491 389.374 490.267 388.894 489.76C388.414 489.24 387.707 488.98 386.774 488.98C386.121 488.98 385.567 489.147 385.114 489.48C384.674 489.8 384.354 490.24 384.154 490.8H381.994V482.38H390.794V484.38ZM395.207 485.24H398.087L402.687 489.78L398.087 494.32H395.207L399.827 489.78L395.207 485.24ZM407.004 485.24H409.884L414.484 489.78L409.884 494.32H407.004L411.624 489.78L407.004 485.24ZM418.801 485.24H421.681L426.281 489.78L421.681 494.32H418.801L423.421 489.78L418.801 485.24ZM430.818 493.9C432.098 492.793 433.105 491.887 433.838 491.18C434.585 490.46 435.205 489.713 435.698 488.94C436.191 488.167 436.438 487.393 436.438 486.62C436.438 485.82 436.245 485.193 435.858 484.74C435.485 484.287 434.891 484.06 434.078 484.06C433.291 484.06 432.678 484.313 432.238 484.82C431.811 485.313 431.585 485.98 431.558 486.82H429.358C429.398 485.3 429.851 484.14 430.718 483.34C431.598 482.527 432.711 482.12 434.058 482.12C435.511 482.12 436.645 482.52 437.458 483.32C438.285 484.12 438.698 485.187 438.698 486.52C438.698 487.48 438.451 488.407 437.958 489.3C437.478 490.18 436.898 490.973 436.218 491.68C435.551 492.373 434.698 493.18 433.658 494.1L432.758 494.9H439.098V496.8H429.378V495.14L430.818 493.9ZM441.101 489.52C441.101 487.213 441.488 485.413 442.261 484.12C443.048 482.813 444.394 482.16 446.301 482.16C448.208 482.16 449.548 482.813 450.321 484.12C451.108 485.413 451.501 487.213 451.501 489.52C451.501 491.853 451.108 493.68 450.321 495C449.548 496.307 448.208 496.96 446.301 496.96C444.394 496.96 443.048 496.307 442.261 495C441.488 493.68 441.101 491.853 441.101 489.52ZM449.261 489.52C449.261 488.44 449.188 487.527 449.041 486.78C448.908 486.033 448.628 485.427 448.201 484.96C447.774 484.48 447.141 484.24 446.301 484.24C445.461 484.24 444.828 484.48 444.401 484.96C443.974 485.427 443.688 486.033 443.541 486.78C443.408 487.527 443.341 488.44 443.341 489.52C443.341 490.64 443.408 491.58 443.541 492.34C443.674 493.1 443.954 493.713 444.381 494.18C444.821 494.647 445.461 494.88 446.301 494.88C447.141 494.88 447.774 494.647 448.201 494.18C448.641 493.713 448.928 493.1 449.061 492.34C449.194 491.58 449.261 490.64 449.261 489.52ZM455.173 493.9C456.453 492.793 457.46 491.887 458.193 491.18C458.94 490.46 459.56 489.713 460.053 488.94C460.547 488.167 460.793 487.393 460.793 486.62C460.793 485.82 460.6 485.193 460.213 484.74C459.84 484.287 459.247 484.06 458.433 484.06C457.647 484.06 457.033 484.313 456.593 484.82C456.167 485.313 455.94 485.98 455.913 486.82H453.713C453.753 485.3 454.207 484.14 455.073 483.34C455.953 482.527 457.067 482.12 458.413 482.12C459.867 482.12 461 482.52 461.813 483.32C462.64 484.12 463.053 485.187 463.053 486.52C463.053 487.48 462.807 488.407 462.313 489.3C461.833 490.18 461.253 490.973 460.573 491.68C459.907 492.373 459.053 493.18 458.013 494.1L457.113 494.9H463.453V496.8H453.733V495.14L455.173 493.9ZM465.176 493.96V492.24L471.896 482.6H474.656V491.98H476.516V493.96H474.656V497H472.416V493.96H465.176ZM472.516 484.92L467.796 491.98H472.516V484.92Z" fill="white"/>
<g filter="url(#filter0_d_4012_2970)">
<path d="M219.447 373.6C223.98 370 226.047 368.333 225.647 368.6C238.714 357.8 248.98 348.933 256.447 342C264.047 335.067 270.447 327.8 275.647 320.2C280.847 312.6 283.447 305.2 283.447 298C283.447 292.533 282.18 288.267 279.647 285.2C277.114 282.133 273.314 280.6 268.247 280.6C263.18 280.6 259.18 282.533 256.247 286.4C253.447 290.133 252.047 295.467 252.047 302.4H219.047C219.314 291.067 221.714 281.6 226.247 274C230.914 266.4 236.98 260.8 244.447 257.2C252.047 253.6 260.447 251.8 269.647 251.8C285.514 251.8 297.447 255.867 305.447 264C313.58 272.133 317.647 282.733 317.647 295.8C317.647 310.067 312.78 323.333 303.047 335.6C293.314 347.733 280.914 359.6 265.847 371.2H319.847V399H219.447V373.6ZM334.905 326C334.905 303.067 339.305 285 348.105 271.8C357.038 258.6 371.371 252 391.105 252C410.838 252 425.105 258.6 433.905 271.8C442.838 285 447.305 303.067 447.305 326C447.305 349.2 442.838 367.4 433.905 380.6C425.105 393.8 410.838 400.4 391.105 400.4C371.371 400.4 357.038 393.8 348.105 380.6C339.305 367.4 334.905 349.2 334.905 326ZM413.705 326C413.705 312.533 412.238 302.2 409.305 295C406.371 287.667 400.305 284 391.105 284C381.905 284 375.838 287.667 372.905 295C369.971 302.2 368.505 312.533 368.505 326C368.505 335.067 369.038 342.6 370.105 348.6C371.171 354.467 373.305 359.267 376.505 363C379.838 366.6 384.705 368.4 391.105 368.4C397.505 368.4 402.305 366.6 405.505 363C408.838 359.267 411.038 354.467 412.105 348.6C413.171 342.6 413.705 335.067 413.705 326ZM508.594 380.7V401H496.414C487.734 401 480.967 398.9 476.114 394.7C471.26 390.407 468.834 383.453 468.834 373.84V342.76H459.314V322.88H468.834V303.84H492.774V322.88H508.454V342.76H492.774V374.12C492.774 376.453 493.334 378.133 494.454 379.16C495.574 380.187 497.44 380.7 500.054 380.7H508.594ZM569.949 322.04C578.909 322.04 586.095 325.027 591.509 331C596.922 336.88 599.629 345 599.629 355.36V401H575.829V358.58C575.829 353.353 574.475 349.293 571.769 346.4C569.062 343.507 565.422 342.06 560.849 342.06C556.275 342.06 552.635 343.507 549.929 346.4C547.222 349.293 545.869 353.353 545.869 358.58V401H521.929V297.4H545.869V333.38C548.295 329.927 551.609 327.173 555.809 325.12C560.009 323.067 564.722 322.04 569.949 322.04Z" fill="white"/>
<path d="M240.353 451.676H226.991L224.849 458H215.72L228.674 422.198H238.772L251.726 458H242.495L240.353 451.676ZM238.109 444.944L233.672 431.837L229.286 444.944H238.109ZM290.247 458H281.526L266.94 435.917V458H258.219V422.198H266.94L281.526 444.383V422.198H290.247V458ZM331.146 458H322.425L307.839 435.917V458H299.118V422.198H307.839L322.425 444.383V422.198H331.146V458ZM348.739 422.198V458H340.018V422.198H348.739ZM391.218 422.198L378.519 458H367.605L354.906 422.198H364.188L373.062 449.228L381.987 422.198H391.218ZM406.134 429.185V436.427H417.813V443.159H406.134V451.013H419.343V458H397.413V422.198H419.343V429.185H406.134ZM445.813 458L438.367 444.485H436.276V458H427.555V422.198H442.192C445.014 422.198 447.411 422.691 449.383 423.677C451.389 424.663 452.885 426.023 453.871 427.757C454.857 429.457 455.35 431.361 455.35 433.469C455.35 435.849 454.67 437.974 453.31 439.844C451.984 441.714 450.012 443.04 447.394 443.822L455.656 458H445.813ZM436.276 438.314H441.682C443.28 438.314 444.47 437.923 445.252 437.141C446.068 436.359 446.476 435.254 446.476 433.826C446.476 432.466 446.068 431.395 445.252 430.613C444.47 429.831 443.28 429.44 441.682 429.44H436.276V438.314ZM476.328 458.357C473.71 458.357 471.364 457.932 469.29 457.082C467.216 456.232 465.55 454.974 464.292 453.308C463.068 451.642 462.422 449.636 462.354 447.29H471.636C471.772 448.616 472.231 449.636 473.013 450.35C473.795 451.03 474.815 451.37 476.073 451.37C477.365 451.37 478.385 451.081 479.133 450.503C479.881 449.891 480.255 449.058 480.255 448.004C480.255 447.12 479.949 446.389 479.337 445.811C478.759 445.233 478.028 444.757 477.144 444.383C476.294 444.009 475.07 443.584 473.472 443.108C471.16 442.394 469.273 441.68 467.811 440.966C466.349 440.252 465.091 439.198 464.037 437.804C462.983 436.41 462.456 434.591 462.456 432.347C462.456 429.015 463.663 426.414 466.077 424.544C468.491 422.64 471.636 421.688 475.512 421.688C479.456 421.688 482.635 422.64 485.049 424.544C487.463 426.414 488.755 429.032 488.925 432.398H479.49C479.422 431.242 478.997 430.341 478.215 429.695C477.433 429.015 476.43 428.675 475.206 428.675C474.152 428.675 473.302 428.964 472.656 429.542C472.01 430.086 471.687 430.885 471.687 431.939C471.687 433.095 472.231 433.996 473.319 434.642C474.407 435.288 476.107 435.985 478.419 436.733C480.731 437.515 482.601 438.263 484.029 438.977C485.491 439.691 486.749 440.728 487.803 442.088C488.857 443.448 489.384 445.199 489.384 447.341C489.384 449.381 488.857 451.234 487.803 452.9C486.783 454.566 485.287 455.892 483.315 456.878C481.343 457.864 479.014 458.357 476.328 458.357ZM519.588 451.676H506.226L504.084 458H494.955L507.909 422.198H518.007L530.961 458H521.73L519.588 451.676ZM517.344 444.944L512.907 431.837L508.521 444.944H517.344ZM555.712 458L548.266 444.485H546.175V458H537.454V422.198H552.091C554.913 422.198 557.31 422.691 559.282 423.677C561.288 424.663 562.784 426.023 563.77 427.757C564.756 429.457 565.249 431.361 565.249 433.469C565.249 435.849 564.569 437.974 563.209 439.844C561.883 441.714 559.911 443.04 557.293 443.822L565.555 458H555.712ZM546.175 438.314H551.581C553.179 438.314 554.369 437.923 555.151 437.141C555.967 436.359 556.375 435.254 556.375 433.826C556.375 432.466 555.967 431.395 555.151 430.613C554.369 429.831 553.179 429.44 551.581 429.44H546.175V438.314ZM603.975 422.198L591.582 446.168V458H582.861V446.168L570.468 422.198H580.362L587.298 437.192L594.183 422.198H603.975Z" fill="white"/>
</g>
<defs>
<filter id="filter0_d_4012_2970" x="191.72" y="231.8" width="436.255" height="254.557" filterUnits="userSpaceOnUse" color-interpolation-filters="sRGB">
<feFlood flood-opacity="0" result="BackgroundImageFix"/>
<feColorMatrix in="SourceAlpha" type="matrix" values="0 0 0 0 0 0 0 0 0 0 0 0 0 0 0 0 0 0 127 0" result="hardAlpha"/>
<feOffset dy="4"/>
<feGaussianBlur stdDeviation="12"/>
<feComposite in2="hardAlpha" operator="out"/>
<feColorMatrix type="matrix" values="0 0 0 0 0 0 0 0 0 0 0 0 0 0 0 0 0 0 0.25 0"/>
<feBlend mode="normal" in2="BackgroundImageFix" result="effect1_dropShadow_4012_2970"/>
<feBlend mode="normal" in="SourceGraphic" in2="effect1_dropShadow_4012_2970" result="shape"/>
</filter>
<linearGradient id="paint0_linear_4012_2970" x1="23" y1="57.9951" x2="23" y2="1142.71" gradientUnits="userSpaceOnUse">
<stop offset="0.355" stop-color="#BED1DA"/>
<stop offset="1" stop-color="#E7F1F5" stop-opacity="0.1"/>
</linearGradient>
<linearGradient id="paint1_linear_4012_2970" x1="462.422" y1="163.215" x2="591.746" y2="656.855" gradientUnits="userSpaceOnUse">
<stop stop-color="#AC0C2D"/>
<stop offset="1" stop-color="#D33556"/>
</linearGradient>
</defs>
</svg>
