<svg width="250" height="282" viewBox="0 0 250 282" fill="none" xmlns="http://www.w3.org/2000/svg">
<g clip-path="url(#clip0_354_1018)">
<path d="M250 182.491L231.48 105.063L188.999 172.371L215.637 165.92C213.981 171.229 211.783 176.36 209.214 181.291C201.952 195.234 190.095 208.234 176.296 215.943C162.651 223.566 147.91 228.223 132.89 229.617V110.331H166.128C168.452 112.44 171.506 113.754 174.886 113.754C182.119 113.754 187.982 107.886 187.982 100.646C187.982 93.4057 182.119 87.5371 174.886 87.5371C171.506 87.5371 168.452 88.8514 166.128 90.96H132.89V69.6857C148.185 65.7829 159.551 51.9143 159.551 35.4114C159.551 15.8857 143.68 0 124.172 0C104.664 0 88.7931 15.8857 88.7931 35.4114C88.7931 51.92 100.154 65.7829 115.454 69.6857V90.96H82.2163C79.8927 88.8514 76.8383 87.5371 73.4585 87.5371C66.2252 87.5371 60.362 93.4057 60.362 100.646C60.362 107.886 66.2252 113.754 73.4585 113.754C76.8383 113.754 79.8927 112.434 82.2163 110.331H115.454V229.726C106.748 229.04 98.0532 227.251 89.5296 224.234C70.4385 217.474 54.082 204.594 42.9036 187.709C38.4277 180.949 34.7739 173.343 32.456 165.451L61.0071 172.366L18.5259 105.057L0 182.491L23.2074 167.737C24.4405 197.891 44.5764 225.583 71.0493 240.617C70.6554 240.497 73.3786 241.909 74.3834 242.429C77.9402 244.269 81.5711 245.851 85.2535 247.257C101.656 256.549 117.966 271.046 122.762 280.88C122.836 281.029 122.893 281.171 122.962 281.32C123.224 281.72 123.658 281.994 124.172 281.994C124.686 281.994 125.12 281.714 125.382 281.32C125.474 281.183 125.537 281.04 125.582 280.88C130.464 270.869 147.282 256.04 163.982 246.771C168.172 245.177 172.294 243.337 176.319 241.251C176.667 241.069 177.883 240.434 177.592 240.526C193.098 232.149 206.611 218.714 214.975 203.309C220.644 192.869 224.498 181.343 225.166 169.423C225.188 169.017 225.2 168.029 225.194 166.709L250 182.48V182.491ZM106.229 35.4114C106.229 25.5086 114.278 17.4514 124.172 17.4514C134.066 17.4514 142.116 25.5086 142.116 35.4114C142.116 45.3143 134.066 53.3657 124.172 53.3657C114.278 53.3657 106.229 45.3086 106.229 35.4114Z" fill="url(#paint0_linear_354_1018)"/>
</g>
<defs>
<linearGradient id="paint0_linear_354_1018" x1="25.0628" y1="35.3714" x2="159.593" y2="195.913" gradientUnits="userSpaceOnUse">
<stop stop-color="#C9BC9C"/>
<stop offset="1" stop-color="#C9A063"/>
</linearGradient>
<clipPath id="clip0_354_1018">
<rect width="250" height="282" fill="white"/>
</clipPath>
</defs>
</svg>
