<svg width="472" height="432" viewBox="0 0 472 432" fill="none" xmlns="http://www.w3.org/2000/svg">
<mask id="mask0_4023_1153" style="mask-type:alpha" maskUnits="userSpaceOnUse" x="0" y="0" width="472" height="432">
<rect width="472" height="432" fill="#D9D9D9"/>
</mask>
<g mask="url(#mask0_4023_1153)">
<path opacity="0.7" d="M454.088 138.936C477.359 187.54 479.182 237.661 459.558 289.3C439.933 340.938 406.027 377.143 357.84 397.916C309.653 418.688 259.748 428.58 208.124 427.593C156.501 426.605 110.807 406.35 71.0434 366.827C31.2795 327.304 8.23035 277.534 1.89599 217.519C-4.43836 157.503 19.3224 115.602 73.1783 91.8145C127.034 68.0271 176.124 44.0376 220.447 19.8457C264.77 -4.34614 308.973 -2.69669 353.056 24.7941C397.14 52.2848 430.817 90.3322 454.088 138.936Z" fill="white"/>
</g>
</svg>
