<svg width="21" height="20" viewBox="0 0 21 20" fill="none" xmlns="http://www.w3.org/2000/svg">
<mask id="mask0_11_242" style="mask-type:alpha" maskUnits="userSpaceOnUse" x="0" y="0" width="21" height="20">
<rect x="0.5" width="20" height="20" fill="#D9D9D9"/>
</mask>
<g mask="url(#mask0_11_242)">
<path d="M11.3751 9.99999L7.95841 6.58332C7.80564 6.43055 7.72925 6.25346 7.72925 6.05207C7.72925 5.85068 7.80564 5.6736 7.95841 5.52082C8.11119 5.36805 8.28828 5.29166 8.48966 5.29166C8.69105 5.29166 8.8705 5.37041 9.028 5.52791L12.9792 9.47916C13.0487 9.55416 13.1008 9.63541 13.1355 9.72291C13.1702 9.81041 13.1876 9.90416 13.1876 10.0042C13.1876 10.1042 13.1702 10.1979 13.1355 10.2854C13.1008 10.3729 13.0487 10.4514 12.9792 10.5208L9.028 14.4721C8.8705 14.6296 8.69453 14.7049 8.50008 14.6979C8.30564 14.691 8.13203 14.6111 7.97925 14.4583C7.82647 14.3055 7.75008 14.1285 7.75008 13.9271C7.75008 13.7257 7.82647 13.5486 7.97925 13.3958L11.3751 9.99999Z" fill="#AC0C2D"/>
</g>
</svg>
