<svg width="40" height="26" viewBox="0 0 40 26" fill="none" xmlns="http://www.w3.org/2000/svg">
<path d="M21.6767 9.16017C21.6767 16.2336 26.25 22.1337 33.94 25.0905C34.98 25.4905 35.28 24.8705 34.5567 24.2671C33.8833 23.7071 32.9 22.6271 32 21.057C31.0533 19.4037 30.84 17.8103 30.84 17.8103C35.9 17.8137 40 14.2203 40 9.16017C40 4.10007 35.9 0 30.84 0C25.78 0 21.68 4.10007 21.68 9.16017H21.6767Z" fill="white"/>
<path d="M-0.000102997 9.16017C-0.000102997 16.2336 4.57323 22.1337 12.2632 25.0905C13.3032 25.4905 13.6032 24.8705 12.8799 24.2671C12.2066 23.7071 11.2232 22.6271 10.3232 21.057C9.37657 19.4037 9.16323 17.8103 9.16323 17.8103C14.2232 17.8103 18.3232 14.2203 18.3232 9.16017C18.3232 4.10007 14.2199 0 9.1599 0C4.0999 0 -0.000102997 4.10007 -0.000102997 9.16017Z" fill="white"/>
</svg>
