<svg width="380" height="380" viewBox="0 0 380 380" fill="none" xmlns="http://www.w3.org/2000/svg">
<g clip-path="url(#clip0_262_818)">
<path d="M311.069 190C311.069 256.863 256.865 311.073 189.997 311.073C123.13 311.073 68.9256 256.863 68.9256 190C68.9256 123.137 123.125 68.9265 189.997 68.9265C256.87 68.9265 311.069 123.132 311.069 190Z" fill="#E5D2B1"/>
<path d="M189.998 302.919C127.739 302.919 77.0799 252.265 77.0799 190C77.0799 127.735 127.739 77.0809 189.998 77.0809C252.256 77.0809 302.915 127.735 302.915 190C302.915 252.265 252.261 302.919 189.998 302.919Z" fill="white"/>
<path d="M172.307 207.741L73.5637 73.5647L207.739 172.309L172.307 207.741Z" fill="white"/>
<path d="M207.693 172.259L306.431 306.435L172.256 207.691L207.693 172.259Z" fill="white"/>
<path d="M207.683 172.264L73.5637 73.5647L189.972 189.975L207.683 172.264Z" fill="url(#paint0_linear_262_818)"/>
<path d="M207.714 172.284L207.734 172.314L207.739 172.309L207.714 172.284Z" fill="#44403A"/>
<path d="M207.693 172.259L207.683 172.264L207.714 172.284L207.693 172.259Z" fill="#44403A"/>
<path d="M207.683 172.264L189.972 189.975L190.023 190.025L207.734 172.314L207.714 172.284L207.683 172.264Z" fill="#44403A"/>
<path d="M172.307 207.741L172.312 207.736L172.281 207.716L172.307 207.741Z" fill="#44403A"/>
<path d="M172.312 207.736L306.431 306.435L190.023 190.025L172.312 207.736Z" fill="url(#paint1_linear_262_818)"/>
<path d="M172.256 207.691L172.282 207.716L172.261 207.686L172.256 207.691Z" fill="#44403A"/>
<path d="M172.281 207.716L172.312 207.736L190.023 190.025L189.972 189.975L172.261 207.686L172.281 207.716Z" fill="#44403A"/>
<path d="M207.739 207.691L73.5637 306.435L172.307 172.259L207.739 207.691Z" fill="white"/>
<path d="M172.256 172.309L306.431 73.5647L207.693 207.741L172.256 172.309Z" fill="white"/>
<path d="M172.261 172.314L73.5637 306.435L189.972 190.025L172.261 172.314Z" fill="url(#paint2_linear_262_818)"/>
<path d="M172.281 172.284L172.312 172.264L172.307 172.259L172.281 172.284Z" fill="#44403A"/>
<path d="M172.256 172.309L172.261 172.314L172.282 172.284L172.256 172.309Z" fill="#44403A"/>
<path d="M172.261 172.314L189.972 190.025L190.023 189.975L172.312 172.264L172.281 172.284L172.261 172.314Z" fill="#44403A"/>
<path d="M207.739 207.691L207.734 207.686L207.714 207.716L207.739 207.691Z" fill="#44403A"/>
<path d="M207.734 207.686L306.431 73.5647L190.023 189.975L207.734 207.686Z" fill="url(#paint3_linear_262_818)"/>
<path d="M207.693 207.741L207.714 207.716L207.683 207.736L207.693 207.741Z" fill="#44403A"/>
<path d="M207.714 207.716L207.734 207.686L190.023 189.975L189.972 190.025L207.683 207.736L207.714 207.716Z" fill="#44403A"/>
<path d="M215.051 190L215.046 190.036H215.056L215.051 190Z" fill="#44403A"/>
<path d="M215.056 189.965H215.046L215.051 190.001L215.056 189.965Z" fill="#44403A"/>
<path d="M215.046 189.965H189.997V190.035H215.046L215.051 190L215.046 189.965Z" fill="#44403A"/>
<path d="M164.939 190.036H164.954L164.949 190L164.939 190.036Z" fill="#44403A"/>
<path d="M164.939 189.965L164.949 190.001L164.954 189.965H164.939Z" fill="#44403A"/>
<path d="M164.949 190L164.954 190.035H189.997V189.965H164.954L164.949 190Z" fill="#44403A"/>
<path d="M190.033 215.049L380 190L190.033 164.951V164.946L0 190L167.809 212.129L189.962 215.049V215.059L189.997 215.054L190.033 215.059V215.049Z" fill="#44403A"/>
<path d="M167.894 167.861L0 190H189.962L167.894 167.861Z" fill="#9FA0A0"/>
<path d="M189.997 164.951H190.033V164.946L189.997 164.951Z" fill="#44403A"/>
<path d="M189.962 164.946V164.951H189.998L189.962 164.946Z" fill="#44403A"/>
<path d="M212.161 212.129L380 190H190.033L212.161 212.129Z" fill="#9FA0A0"/>
<path d="M164.949 190.001L164.954 189.965H164.939L164.949 190.001Z" fill="#44403A"/>
<path d="M164.939 190.036H164.954L164.949 190L164.939 190.036Z" fill="#44403A"/>
<path d="M164.954 190.035H189.997V189.965H164.954L164.949 190L164.954 190.035Z" fill="#44403A"/>
<path d="M215.056 189.965H215.046L215.051 190.001L215.056 189.965Z" fill="#44403A"/>
<path d="M215.056 190.036L215.051 190L215.046 190.036H215.056Z" fill="#44403A"/>
<path d="M215.051 190L215.046 189.965H189.997V190.035H215.046L215.051 190Z" fill="#44403A"/>
<path d="M212.131 212.134L380 190L212.186 167.876L212.131 167.866L189.997 0L167.864 167.866L0 190L167.864 212.134L189.997 380L212.126 212.189L212.131 212.134Z" fill="white"/>
<path d="M212.101 212.139L380 190H190.033L212.101 212.139Z" fill="url(#paint4_linear_262_818)"/>
<path d="M189.998 215.054L189.962 215.049V215.059L189.998 215.054Z" fill="#44403A"/>
<path d="M190.033 215.059V215.049L189.997 215.054L190.033 215.059Z" fill="#44403A"/>
<path d="M167.834 167.871L0 190H189.962L167.834 167.871Z" fill="url(#paint5_linear_262_818)"/>
<path d="M167.859 212.109L189.997 380V190.035L167.859 212.109Z" fill="#9FA0A0"/>
<path d="M164.949 190.001V189.965H164.939L164.949 190.001Z" fill="#44403A"/>
<path d="M164.939 190.036H164.949V190L164.939 190.036Z" fill="#44403A"/>
<path d="M212.126 167.836L189.997 0V189.965L212.126 167.836Z" fill="#9FA0A0"/>
<path d="M212.136 167.896L189.997 0V189.965L212.136 167.896Z" fill="url(#paint6_linear_262_818)"/>
<path d="M215.051 190L215.046 190.036H215.056L215.051 190Z" fill="#44403A"/>
<path d="M215.056 189.965H215.046L215.051 190.001L215.056 189.965Z" fill="#44403A"/>
<path d="M167.869 212.164L189.997 380V190.035L167.869 212.164Z" fill="url(#paint7_linear_262_818)"/>
<path d="M170.734 96.0293L170.679 96.0444C169.852 96.2647 163.827 91.3761 161.678 86.783C162.114 91.8319 159.339 99.0847 158.512 99.3051L158.457 99.3201C158.457 99.3201 158.482 99.3301 158.492 99.3402C158.487 99.3502 158.472 99.3702 158.472 99.3702L158.527 99.3552C159.384 99.1248 165.379 104.023 167.528 108.617C167.092 103.568 169.867 96.3148 170.694 96.0944L170.749 96.0794C170.749 96.0794 170.724 96.0694 170.714 96.0644C170.724 96.0544 170.739 96.0293 170.739 96.0293H170.734Z" fill="url(#paint8_linear_262_818)"/>
<path d="M147.077 104.214L147.027 104.244C146.286 104.67 139.199 101.509 135.938 97.6271C137.671 102.396 136.86 110.114 136.123 110.54L136.073 110.57C136.073 110.57 136.098 110.57 136.113 110.575C136.108 110.585 136.098 110.61 136.098 110.61L136.148 110.58C136.915 110.139 143.977 113.315 147.238 117.197C145.505 112.428 146.316 104.71 147.052 104.279L147.102 104.249C147.102 104.249 147.077 104.249 147.062 104.244C147.067 104.234 147.077 104.209 147.077 104.209V104.214Z" fill="url(#paint9_linear_262_818)"/>
<path d="M109.947 137.162L109.917 137.217C109.492 137.953 101.768 138.76 97.0048 137.032C100.887 140.292 104.047 147.385 103.621 148.121L103.596 148.171C103.596 148.171 103.621 148.166 103.631 148.161C103.631 148.171 103.636 148.201 103.636 148.201L103.666 148.146C104.112 147.38 111.816 146.604 116.579 148.332C112.697 145.066 109.537 137.978 109.962 137.237L109.992 137.187C109.992 137.187 109.972 137.197 109.952 137.202C109.952 137.187 109.952 137.162 109.952 137.162H109.947Z" fill="url(#paint10_linear_262_818)"/>
<path d="M99.0032 159.677L98.9882 159.737C98.7678 160.558 91.5202 163.338 86.4663 162.897C91.0593 165.046 95.9479 171.072 95.7275 171.898L95.7125 171.953C95.7125 171.953 95.7325 171.938 95.7425 171.933C95.7475 171.948 95.7576 171.968 95.7576 171.968L95.7726 171.908C96.003 171.052 103.241 168.307 108.295 168.748C103.701 166.599 98.8129 160.568 99.0333 159.747L99.0483 159.692C99.0483 159.692 99.0283 159.707 99.0133 159.712C99.0133 159.702 98.9982 159.672 98.9982 159.672L99.0032 159.677Z" fill="url(#paint11_linear_262_818)"/>
<path d="M96.0481 209.229L96.0631 209.289C96.2835 210.115 91.3949 216.141 86.8019 218.29C91.8558 217.854 99.1034 220.629 99.3238 221.455L99.3388 221.511C99.3388 221.511 99.3489 221.491 99.3589 221.476C99.3639 221.486 99.3889 221.501 99.3889 221.501L99.3739 221.44C99.1435 220.584 104.042 214.588 108.635 212.44C103.581 212.88 96.3336 210.1 96.1132 209.279L96.0982 209.219C96.0982 209.219 96.0932 209.244 96.0781 209.254C96.0731 209.244 96.0481 209.229 96.0481 209.229Z" fill="url(#paint12_linear_262_818)"/>
<path d="M104.227 232.886L104.257 232.941C104.683 233.682 101.523 240.77 97.6409 244.03C102.409 242.297 110.128 243.109 110.553 243.845L110.584 243.895C110.584 243.895 110.589 243.875 110.594 243.86C110.604 243.865 110.629 243.875 110.629 243.875L110.599 243.82C110.153 243.054 113.333 235.991 117.215 232.73C112.447 234.463 104.728 233.657 104.303 232.916L104.272 232.866C104.272 232.866 104.272 232.886 104.267 232.906C104.257 232.901 104.232 232.886 104.232 232.886H104.227Z" fill="url(#paint13_linear_262_818)"/>
<path d="M137.175 270.016L137.225 270.051C137.966 270.477 138.773 278.196 137.04 282.964C140.306 279.082 147.393 275.922 148.129 276.347L148.179 276.372C148.179 276.372 148.169 276.352 148.164 276.337C148.174 276.337 148.204 276.332 148.204 276.332L148.154 276.302C147.388 275.861 146.612 268.153 148.34 263.389C145.074 267.271 137.986 270.432 137.245 270.006L137.195 269.976C137.195 269.976 137.205 269.996 137.21 270.016H137.17H137.175Z" fill="url(#paint14_linear_262_818)"/>
<path d="M159.689 280.96L159.745 280.98C160.571 281.201 163.346 288.449 162.905 293.503C165.054 288.909 171.084 284.021 171.906 284.241L171.966 284.256C171.966 284.256 171.951 284.236 171.946 284.226C171.956 284.226 171.981 284.211 171.981 284.211L171.926 284.191C171.069 283.966 168.325 276.723 168.765 271.669C166.617 276.262 160.586 281.156 159.765 280.93L159.709 280.915C159.709 280.915 159.725 280.935 159.735 280.95C159.72 280.95 159.699 280.96 159.699 280.96H159.689Z" fill="url(#paint15_linear_262_818)"/>
<path d="M209.236 283.921H209.241L209.296 283.911C210.123 283.69 216.148 288.574 218.292 293.172C217.856 288.123 220.631 280.87 221.453 280.65L221.508 280.63C221.508 280.63 221.483 280.625 221.473 280.615C221.483 280.605 221.498 280.585 221.498 280.585L221.443 280.6C220.586 280.83 214.591 275.926 212.447 271.338C212.883 276.392 210.103 283.64 209.281 283.866L209.226 283.876C209.226 283.876 209.246 283.886 209.261 283.896C209.251 283.906 209.231 283.926 209.231 283.926L209.236 283.921Z" fill="url(#paint16_linear_262_818)"/>
<path d="M232.898 275.736H232.903L232.953 275.706C233.694 275.28 240.781 278.441 244.037 282.323C242.309 277.554 243.115 269.836 243.852 269.41L243.902 269.375C243.902 269.375 243.872 269.375 243.862 269.375C243.867 269.365 243.877 269.34 243.877 269.34L243.827 269.37C243.06 269.816 235.998 266.63 232.737 262.748C234.465 267.517 233.659 275.24 232.923 275.666L232.873 275.691C232.873 275.691 232.893 275.696 232.913 275.701C232.903 275.716 232.893 275.736 232.893 275.736H232.898Z" fill="url(#paint17_linear_262_818)"/>
<path d="M270.028 242.793L270.058 242.743C270.483 242.002 278.202 241.195 282.97 242.928C279.088 239.663 275.928 232.575 276.354 231.839L276.384 231.789C276.384 231.789 276.359 231.799 276.344 231.804C276.344 231.789 276.339 231.764 276.339 231.764L276.309 231.814C275.863 232.585 268.159 233.356 263.396 231.628C267.278 234.894 270.438 241.982 270.013 242.723L269.982 242.768C269.982 242.768 270.002 242.763 270.023 242.753V242.793H270.028Z" fill="url(#paint18_linear_262_818)"/>
<path d="M280.972 220.273L280.987 220.218C281.207 219.392 288.455 216.617 293.509 217.053C288.916 214.904 284.027 208.873 284.247 208.052L284.262 207.992C284.262 207.992 284.242 208.007 284.227 208.012C284.227 207.997 284.212 207.977 284.212 207.977L284.197 208.032C283.967 208.888 276.729 211.633 271.675 211.192C276.268 213.341 281.157 219.372 280.937 220.198L280.922 220.248C280.922 220.248 280.942 220.238 280.957 220.228C280.957 220.243 280.967 220.263 280.967 220.263L280.972 220.273Z" fill="url(#paint19_linear_262_818)"/>
<path d="M283.927 170.726L283.912 170.666C283.691 169.844 288.58 163.814 293.173 161.67C288.119 162.106 280.872 159.326 280.651 158.504L280.636 158.449C280.636 158.449 280.626 158.474 280.616 158.484C280.611 158.474 280.586 158.459 280.586 158.459L280.601 158.514C280.831 159.371 275.933 165.367 271.34 167.51C276.389 167.075 283.641 169.854 283.862 170.676L283.872 170.731C283.872 170.731 283.882 170.711 283.887 170.696C283.897 170.706 283.912 170.726 283.912 170.726H283.927Z" fill="url(#paint20_linear_262_818)"/>
<path d="M275.748 147.064L275.718 147.009C275.287 146.273 278.452 139.18 282.334 135.92C277.566 137.648 269.847 136.841 269.422 136.105L269.391 136.055C269.391 136.055 269.386 136.08 269.381 136.095C269.376 136.085 269.346 136.08 269.346 136.08L269.376 136.13C269.822 136.901 266.642 143.959 262.76 147.22C267.528 145.492 275.252 146.298 275.677 147.039L275.702 147.089C275.702 147.089 275.708 147.069 275.713 147.049C275.723 147.059 275.748 147.069 275.748 147.069V147.064Z" fill="url(#paint21_linear_262_818)"/>
<path d="M242.8 109.934L242.755 109.899C242.014 109.473 241.212 101.754 242.94 96.991C239.674 100.868 232.587 104.033 231.851 103.608L231.796 103.578C231.796 103.578 231.806 103.598 231.806 103.613C231.801 103.613 231.771 103.613 231.771 103.613L231.821 103.643C232.587 104.089 233.363 111.787 231.635 116.556C234.901 112.674 241.993 109.513 242.73 109.939L242.775 109.969C242.775 109.969 242.77 109.949 242.76 109.929H242.8V109.934Z" fill="url(#paint22_linear_262_818)"/>
<path d="M220.286 98.9946L220.235 98.9745C219.409 98.7541 216.634 91.5064 217.07 86.4575C214.921 91.0455 208.891 95.9392 208.069 95.7188L208.009 95.7038C208.009 95.7038 208.024 95.7238 208.029 95.7388C208.019 95.7388 207.994 95.7488 207.994 95.7488L208.049 95.7639C208.906 95.9943 211.65 103.232 211.21 108.286C213.358 103.693 219.389 98.8042 220.215 99.0246L220.265 99.0447C220.265 99.0447 220.255 99.0246 220.24 99.0096C220.255 99.0096 220.281 98.9996 220.281 98.9996L220.286 98.9946Z" fill="url(#paint23_linear_262_818)"/>
</g>
<defs>
<linearGradient id="paint0_linear_262_818" x1="73.5637" y1="131.772" x2="207.683" y2="131.772" gradientUnits="userSpaceOnUse">
<stop stop-color="#C9BC9C"/>
<stop offset="1" stop-color="#C9A063"/>
</linearGradient>
<linearGradient id="paint1_linear_262_818" x1="172.312" y1="248.228" x2="306.431" y2="248.228" gradientUnits="userSpaceOnUse">
<stop stop-color="#C9BC9C"/>
<stop offset="1" stop-color="#C9A063"/>
</linearGradient>
<linearGradient id="paint2_linear_262_818" x1="-1.83001e-05" y1="239.372" x2="189.972" y2="239.372" gradientUnits="userSpaceOnUse">
<stop stop-color="#C9BC9C"/>
<stop offset="1" stop-color="#C9A063"/>
</linearGradient>
<linearGradient id="paint3_linear_262_818" x1="190.023" y1="140.628" x2="306.431" y2="140.628" gradientUnits="userSpaceOnUse">
<stop stop-color="#C9BC9C"/>
<stop offset="1" stop-color="#C9A063"/>
</linearGradient>
<linearGradient id="paint4_linear_262_818" x1="190.033" y1="201.07" x2="380" y2="201.07" gradientUnits="userSpaceOnUse">
<stop stop-color="#C9BC9C"/>
<stop offset="1" stop-color="#C9A063"/>
</linearGradient>
<linearGradient id="paint5_linear_262_818" x1="0" y1="178.935" x2="189.962" y2="178.935" gradientUnits="userSpaceOnUse">
<stop stop-color="#C9BC9C"/>
<stop offset="1" stop-color="#C9A063"/>
</linearGradient>
<linearGradient id="paint6_linear_262_818" x1="189.997" y1="94.9825" x2="212.136" y2="94.9825" gradientUnits="userSpaceOnUse">
<stop stop-color="#C9BC9C"/>
<stop offset="1" stop-color="#C9A063"/>
</linearGradient>
<linearGradient id="paint7_linear_262_818" x1="167.869" y1="285.018" x2="189.997" y2="285.018" gradientUnits="userSpaceOnUse">
<stop stop-color="#C9BC9C"/>
<stop offset="1" stop-color="#C9A063"/>
</linearGradient>
<linearGradient id="paint8_linear_262_818" x1="160.566" y1="100.347" x2="172.938" y2="92.2378" gradientUnits="userSpaceOnUse">
<stop offset="0.03" stop-color="#C4A976"/>
<stop offset="1" stop-color="#EFEFEF"/>
</linearGradient>
<linearGradient id="paint9_linear_262_818" x1="137.345" y1="110.194" x2="150.338" y2="101.679" gradientUnits="userSpaceOnUse">
<stop offset="0.03" stop-color="#C4A976"/>
<stop offset="1" stop-color="#EFEFEF"/>
</linearGradient>
<linearGradient id="paint10_linear_262_818" x1="102.995" y1="145.166" x2="114.631" y2="137.543" gradientUnits="userSpaceOnUse">
<stop offset="0.03" stop-color="#C4A976"/>
<stop offset="1" stop-color="#EFEFEF"/>
</linearGradient>
<linearGradient id="paint11_linear_262_818" x1="92.3566" y1="169.118" x2="107.764" y2="159.026" gradientUnits="userSpaceOnUse">
<stop offset="0.03" stop-color="#C4A976"/>
<stop offset="1" stop-color="#EFEFEF"/>
</linearGradient>
<linearGradient id="paint12_linear_262_818" x1="90.5485" y1="220.058" x2="112.517" y2="205.663" gradientUnits="userSpaceOnUse">
<stop offset="0.03" stop-color="#C4A976"/>
<stop offset="1" stop-color="#EFEFEF"/>
</linearGradient>
<linearGradient id="paint13_linear_262_818" x1="99.8948" y1="243.314" x2="122.99" y2="228.183" gradientUnits="userSpaceOnUse">
<stop offset="0.03" stop-color="#C4A976"/>
<stop offset="1" stop-color="#EFEFEF"/>
</linearGradient>
<linearGradient id="paint14_linear_262_818" x1="135.953" y1="277.589" x2="156.609" y2="264.056" gradientUnits="userSpaceOnUse">
<stop offset="0.03" stop-color="#C4A976"/>
<stop offset="1" stop-color="#EFEFEF"/>
</linearGradient>
<linearGradient id="paint15_linear_262_818" x1="160.205" y1="286.27" x2="177.461" y2="274.965" gradientUnits="userSpaceOnUse">
<stop offset="0.03" stop-color="#C4A976"/>
<stop offset="1" stop-color="#EFEFEF"/>
</linearGradient>
<linearGradient id="paint16_linear_262_818" x1="211.335" y1="284.897" x2="223.712" y2="276.788" gradientUnits="userSpaceOnUse">
<stop offset="0.03" stop-color="#C4A976"/>
<stop offset="1" stop-color="#EFEFEF"/>
</linearGradient>
<linearGradient id="paint17_linear_262_818" x1="234.15" y1="275.315" x2="247.148" y2="266.801" gradientUnits="userSpaceOnUse">
<stop offset="0.03" stop-color="#C4A976"/>
<stop offset="1" stop-color="#EFEFEF"/>
</linearGradient>
<linearGradient id="paint18_linear_262_818" x1="269.391" y1="239.763" x2="281.027" y2="232.134" gradientUnits="userSpaceOnUse">
<stop offset="0.03" stop-color="#C4A976"/>
<stop offset="1" stop-color="#EFEFEF"/>
</linearGradient>
<linearGradient id="paint19_linear_262_818" x1="277.566" y1="217.423" x2="292.973" y2="207.326" gradientUnits="userSpaceOnUse">
<stop offset="0.03" stop-color="#C4A976"/>
<stop offset="1" stop-color="#EFEFEF"/>
</linearGradient>
<linearGradient id="paint20_linear_262_818" x1="275.096" y1="169.283" x2="297.06" y2="154.893" gradientUnits="userSpaceOnUse">
<stop offset="0.03" stop-color="#C4A976"/>
<stop offset="1" stop-color="#EFEFEF"/>
</linearGradient>
<linearGradient id="paint21_linear_262_818" x1="265.014" y1="146.508" x2="288.104" y2="131.377" gradientUnits="userSpaceOnUse">
<stop offset="0.03" stop-color="#C4A976"/>
<stop offset="1" stop-color="#EFEFEF"/>
</linearGradient>
<linearGradient id="paint22_linear_262_818" x1="230.543" y1="111.191" x2="251.2" y2="97.6574" gradientUnits="userSpaceOnUse">
<stop offset="0.03" stop-color="#C4A976"/>
<stop offset="1" stop-color="#EFEFEF"/>
</linearGradient>
<linearGradient id="paint23_linear_262_818" x1="208.51" y1="101.058" x2="225.765" y2="89.7535" gradientUnits="userSpaceOnUse">
<stop offset="0.03" stop-color="#C4A976"/>
<stop offset="1" stop-color="#EFEFEF"/>
</linearGradient>
<clipPath id="clip0_262_818">
<rect width="380" height="380" fill="white"/>
</clipPath>
</defs>
</svg>
