<svg width="40" height="40" viewBox="0 0 40 40" fill="none" xmlns="http://www.w3.org/2000/svg">
<path d="M40.0001 20C40.0001 8.95442 31.0457 0 20 0C8.95442 0 0 8.95442 0 20C0 29.3793 6.45761 37.2497 15.1688 39.4113V26.112H11.0448V20H15.1688V17.3664C15.1688 10.5592 18.2496 7.40401 24.9328 7.40401C26.2 7.40401 28.3865 7.65281 29.2809 7.90081V13.4408C28.8089 13.3912 27.9889 13.3664 26.9704 13.3664C23.6912 13.3664 22.424 14.6088 22.424 17.8384V20H28.9569L27.8344 26.112H22.424V39.8537C32.3273 38.6577 40.0009 30.2257 40.0009 20H40.0001Z" fill="#0866FF"/>
<path d="M27.8336 26.1128L28.956 20.0008H22.4232V17.8392C22.4232 14.6096 23.6904 13.3672 26.9696 13.3672C27.988 13.3672 28.808 13.392 29.28 13.4416V7.90159C28.3856 7.65279 26.1992 7.40479 24.932 7.40479C18.2488 7.40479 15.168 10.56 15.168 17.3672V20.0008H11.0439V26.1128H15.168V39.412C16.7152 39.796 18.3336 40.0008 19.9992 40.0008C20.8192 40.0008 21.628 39.9504 22.4224 39.8544V26.1128H27.8328H27.8336Z" fill="white"/>
</svg>
