<svg width="40" height="40" viewBox="0 0 40 40" fill="none" xmlns="http://www.w3.org/2000/svg">
<g clip-path="url(#clip0_435_943)">
<path d="M20 40.0005C31.0457 40.0005 40 31.0462 40 20.0005C40 8.95479 31.0457 0.000488281 20 0.000488281C8.95431 0.000488281 0 8.95479 0 20.0005C0 31.0462 8.95431 40.0005 20 40.0005Z" fill="#00B900"/>
<path d="M33.303 18.8006C33.303 12.8472 27.3363 8.00391 19.9996 8.00391C12.663 8.00391 6.69629 12.8472 6.69629 18.8006C6.69629 24.1372 11.4296 28.6072 17.823 29.4506C18.2563 29.5439 18.8463 29.7372 18.9963 30.1072C19.1296 30.4439 19.083 30.9706 19.0396 31.3106C19.0396 31.3106 18.883 32.2506 18.8496 32.4506C18.793 32.7872 18.583 33.7672 20.003 33.1672C21.423 32.5706 27.663 28.6572 30.4563 25.4439C32.383 23.3306 33.3063 21.1839 33.3063 18.8006" fill="white"/>
<path d="M17.2959 15.9238H16.3625C16.2192 15.9238 16.1025 16.0405 16.1025 16.1838V21.9805C16.1025 22.1238 16.2192 22.2405 16.3625 22.2405H17.2959C17.4392 22.2405 17.5559 22.1238 17.5559 21.9805V16.1838C17.5559 16.0405 17.4392 15.9238 17.2959 15.9238Z" fill="#00B900"/>
<path d="M23.7192 15.9238H22.7858C22.6425 15.9238 22.5258 16.0405 22.5258 16.1838V19.6272L19.8692 16.0405C19.8692 16.0405 19.8558 16.0238 19.8492 16.0138C19.8425 16.0072 19.8392 16.0038 19.8325 15.9972C19.8325 15.9972 19.8325 15.9972 19.8292 15.9938C19.8258 15.9905 19.8192 15.9872 19.8158 15.9838C19.8158 15.9838 19.8125 15.9805 19.8092 15.9772C19.8058 15.9772 19.7992 15.9705 19.7958 15.9672C19.7958 15.9672 19.7892 15.9672 19.7892 15.9638C19.7858 15.9638 19.7792 15.9572 19.7758 15.9572C19.7758 15.9572 19.7692 15.9572 19.7692 15.9538C19.7658 15.9538 19.7592 15.9505 19.7558 15.9472C19.7558 15.9472 19.7492 15.9472 19.7458 15.9472C19.7392 15.9472 19.7358 15.9438 19.7292 15.9405C19.7292 15.9405 19.7225 15.9405 19.7192 15.9405C19.7125 15.9405 19.7092 15.9405 19.7058 15.9372C19.7025 15.9372 19.6992 15.9372 19.6958 15.9372C19.6925 15.9372 19.6858 15.9372 19.6825 15.9372C19.6792 15.9372 19.6725 15.9372 19.6692 15.9372C19.6692 15.9372 19.6625 15.9372 19.6592 15.9372H18.7258C18.5825 15.9372 18.4658 16.0538 18.4658 16.1972V21.9938C18.4658 22.1372 18.5825 22.2538 18.7258 22.2538H19.6592C19.8025 22.2538 19.9192 22.1372 19.9192 21.9938V18.5505L22.5792 22.1438C22.5958 22.1705 22.6192 22.1905 22.6458 22.2072C22.6525 22.2105 22.6558 22.2138 22.6625 22.2172C22.6625 22.2172 22.6658 22.2172 22.6692 22.2205C22.6725 22.2205 22.6758 22.2238 22.6825 22.2272C22.6858 22.2272 22.6892 22.2305 22.6958 22.2338H22.7025C22.7092 22.2338 22.7158 22.2372 22.7192 22.2405C22.7192 22.2405 22.7192 22.2405 22.7225 22.2405C22.7425 22.2472 22.7658 22.2505 22.7892 22.2505H23.7225C23.8658 22.2505 23.9825 22.1338 23.9825 21.9905V16.1938C23.9825 16.0505 23.8658 15.9338 23.7225 15.9338" fill="#00B900"/>
<path d="M15.0466 20.7837H12.51V16.1804C12.51 16.0371 12.3933 15.9204 12.25 15.9204H11.3166C11.1733 15.9204 11.0566 16.0371 11.0566 16.1804V21.9771C11.0566 22.0471 11.0833 22.1104 11.13 22.1571C11.13 22.1571 11.13 22.1571 11.1333 22.1604C11.1333 22.1604 11.1333 22.1604 11.1366 22.1637C11.1833 22.2071 11.2466 22.2371 11.3166 22.2371H15.0433C15.1866 22.2371 15.3033 22.1204 15.3033 21.9771V21.0437C15.3033 20.9004 15.1866 20.7837 15.0433 20.7837" fill="#00B900"/>
<path d="M28.873 17.3737C29.0163 17.3737 29.133 17.2571 29.133 17.1137V16.1804C29.133 16.0371 29.0163 15.9204 28.873 15.9204H25.1463C25.0763 15.9204 25.013 15.9471 24.9663 15.9937C24.9663 15.9937 24.9663 15.9937 24.963 15.9971C24.9196 16.0437 24.8896 16.1071 24.8896 16.1771V21.9737C24.8896 22.0437 24.9163 22.1071 24.963 22.1537C24.963 22.1537 24.963 22.1537 24.9663 22.1571C24.9663 22.1571 24.9663 22.1571 24.9697 22.1604C25.0163 22.2037 25.0796 22.2337 25.1496 22.2337H28.8763C29.0196 22.2337 29.1363 22.1171 29.1363 21.9737V21.0404C29.1363 20.8971 29.0196 20.7804 28.8763 20.7804H26.3396V19.8004H28.8763C29.0196 19.8004 29.1363 19.6837 29.1363 19.5404V18.6071C29.1363 18.4637 29.0196 18.3471 28.8763 18.3471H26.3396V17.3671H28.8763L28.873 17.3737Z" fill="#00B900"/>
</g>
<defs>
<clipPath id="clip0_435_943">
<rect width="40" height="40" fill="white" transform="translate(0 0.000488281)"/>
</clipPath>
</defs>
</svg>
