<svg width="21" height="20" viewBox="0 0 21 20" fill="none" xmlns="http://www.w3.org/2000/svg">
<mask id="mask0_245_428" style="mask-type:alpha" maskUnits="userSpaceOnUse" x="0" y="0" width="21" height="20">
<rect x="0.251953" width="20" height="20" fill="#D9D9D9"/>
</mask>
<g mask="url(#mask0_245_428)">
<path d="M4.75195 17C4.33945 17 3.98633 16.8531 3.69258 16.5594C3.39883 16.2656 3.25195 15.9125 3.25195 15.5V4.5C3.25195 4.0875 3.39883 3.73438 3.69258 3.44063C3.98633 3.14688 4.33945 3 4.75195 3H10.252V4.5H4.75195V15.5H15.752V10H17.252V15.5C17.252 15.9125 17.1051 16.2656 16.8113 16.5594C16.5176 16.8531 16.1645 17 15.752 17H4.75195ZM8.31445 13L7.25195 11.9375L14.6895 4.5H12.252V3H17.252V8H15.752V5.5625L8.31445 13Z" fill="#1C1B1F"/>
</g>
</svg>
