<svg width="117" height="32" viewBox="0 0 117 32" fill="none" xmlns="http://www.w3.org/2000/svg">
<g clip-path="url(#clip0_4001_84)">
<path d="M12.1132 25.0195C13.7098 25.0195 15.0042 23.7252 15.0042 22.1285C15.0042 20.5318 13.7098 19.2375 12.1132 19.2375C10.5165 19.2375 9.22217 20.5318 9.22217 22.1285C9.22217 23.7252 10.5165 25.0195 12.1132 25.0195Z" fill="#004664"/>
<path d="M26.9388 13.9905C26.9388 13.9905 18.8298 7.0605 15.8738 0.609501L8.1958 16.5595C8.1958 16.5595 11.9618 11.7465 14.5798 9.6195C16.5438 8.0255 18.5568 9.3595 21.9998 11.4315C25.1808 13.3465 26.9388 13.9905 26.9388 13.9905Z" fill="#AC002D"/>
<path d="M18.495 30.1495C18.495 30.1495 13.215 28.6325 10.54 28.0565C7.758 27.4575 6.71 26.2605 6.39 24.5185C6.07 22.7765 7.202 14.7705 7.129 14.2455C7.129 14.2455 4.539 20.5895 3.825 22.4675C3.171 24.1895 2.248 26.2535 0 30.2215C0 30.2215 11.693 30.4935 18.495 30.1495ZM35.831 27.8495C35.831 27.8495 31.82 29.0405 27.88 29.9355C23.745 30.8755 18.145 31.3905 18.145 31.3905C25.194 28.9135 27.329 25.8915 27.329 25.8915C26.939 21.7475 23.742 15.8095 23.742 15.8095C23.742 15.8095 30.477 22.2845 35.831 27.8495Z" fill="#AC002D"/>
<path d="M17.0809 17.8385C18.6776 17.8385 19.9719 16.5442 19.9719 14.9475C19.9719 13.3508 18.6776 12.0565 17.0809 12.0565C15.4843 12.0565 14.1899 13.3508 14.1899 14.9475C14.1899 16.5442 15.4843 17.8385 17.0809 17.8385Z" fill="#004664"/>
<path d="M21.3861 25.7335C22.9828 25.7335 24.2771 24.4392 24.2771 22.8425C24.2771 21.2458 22.9828 19.9515 21.3861 19.9515C19.7895 19.9515 18.4951 21.2458 18.4951 22.8425C18.4951 24.4392 19.7895 25.7335 21.3861 25.7335Z" fill="#004664"/>
<path d="M50.4761 8.105C49.8511 8.14 49.3951 8.209 49.1081 8.313C48.9705 8.36037 48.8459 8.43919 48.7442 8.54318C48.6425 8.64716 48.5664 8.77345 48.5221 8.912C48.4181 9.207 48.3661 9.685 48.3661 10.345V23.269C48.3661 23.929 48.4181 24.407 48.5221 24.702C48.6261 24.997 48.8221 25.193 49.1081 25.288C49.3951 25.384 49.8511 25.431 50.4761 25.431H52.3781C53.4551 25.431 54.2761 25.279 54.8401 24.975C55.4041 24.671 55.8171 24.18 56.0781 23.503C56.3391 22.826 56.5301 21.844 56.6511 20.559H57.2501C57.1913 21.2698 57.1653 21.9828 57.1721 22.696C57.1721 23.686 57.2331 24.798 57.3541 26.031C56.1731 25.979 54.1841 25.953 51.3871 25.953C48.0521 25.953 45.5331 25.979 43.8311 26.031V25.51C44.4561 25.475 44.9121 25.406 45.1991 25.302C45.3365 25.2545 45.461 25.1756 45.5627 25.0717C45.6645 24.9677 45.7406 24.8415 45.7851 24.703C45.8891 24.408 45.9411 23.93 45.9411 23.27V10.346C45.9411 9.686 45.8891 9.208 45.7851 8.913C45.7406 8.77453 45.6645 8.64831 45.5627 8.54434C45.461 8.44038 45.3365 8.36151 45.1991 8.314C44.9121 8.21 44.4561 8.14 43.8311 8.106V7.584C44.5611 7.636 45.6721 7.662 47.1661 7.662C48.5561 7.662 49.6581 7.636 50.4751 7.584V8.105H50.4761ZM59.2361 25.393C58.7061 24.846 58.4411 24.086 58.4411 23.113C58.4411 22.331 58.6531 21.689 59.0791 21.185C59.4966 20.6874 60.0106 20.2795 60.5901 19.986C61.1721 19.691 61.9411 19.378 62.8961 19.048C63.8691 18.718 64.5891 18.414 65.0591 18.136C65.5281 17.858 65.7631 17.484 65.7631 17.016V15.4C65.7631 14.393 65.55 13.702 65.125 13.328C64.699 12.955 64.1041 12.768 63.3401 12.768C62.1241 12.768 61.2641 13.081 60.7611 13.706C61.1081 13.793 61.3991 13.976 61.6341 14.253C61.8681 14.531 61.9861 14.878 61.9861 15.295C61.9861 15.729 61.8471 16.073 61.5691 16.324C61.2911 16.576 60.9351 16.702 60.5011 16.702C60.0141 16.702 59.6501 16.55 59.4071 16.246C59.1641 15.942 59.0421 15.573 59.0421 15.138C59.0421 14.721 59.1421 14.374 59.3421 14.096C59.5421 13.818 59.8411 13.54 60.2411 13.262C60.6581 12.967 61.1881 12.724 61.8301 12.532C62.5161 12.3347 63.2272 12.2381 63.9411 12.245C65.2961 12.245 66.3211 12.567 67.0161 13.209C67.4501 13.609 67.7411 14.091 67.8891 14.655C68.0361 15.22 68.1101 15.962 68.1101 16.883V24.126C68.1101 24.561 68.1711 24.873 68.2921 25.064C68.4131 25.255 68.6221 25.35 68.9171 25.35C69.1251 25.35 69.3211 25.303 69.5031 25.207C69.6851 25.112 69.8811 24.977 70.0891 24.803L70.3761 25.246C69.9241 25.594 69.5381 25.841 69.2161 25.989C68.8941 26.136 68.4911 26.211 68.0041 26.211C67.1701 26.211 66.5881 26.003 66.2581 25.586C65.9281 25.169 65.7631 24.605 65.7631 23.892C65.2421 24.761 64.6431 25.364 63.9651 25.703C63.2871 26.042 62.5231 26.211 61.6721 26.211C60.5781 26.214 59.7651 25.941 59.2361 25.393ZM65.7631 23.192V18.085C65.599 18.3358 65.3749 18.5417 65.111 18.684C64.833 18.84 64.4071 19.049 63.8341 19.309C63.1741 19.587 62.6391 19.852 62.2321 20.104C61.8231 20.356 61.4721 20.699 61.1771 21.133C60.8811 21.568 60.7341 22.123 60.7341 22.8C60.7341 23.582 60.9251 24.173 61.3071 24.572C61.6891 24.972 62.1931 25.171 62.8181 25.171C63.9651 25.172 64.9461 24.512 65.7631 23.192ZM85.8931 24.95C86.2491 25.202 86.6881 25.389 87.2091 25.51V26.031C86.1677 25.9735 85.1249 25.9475 84.0821 25.953C83.1441 25.953 82.2491 25.979 81.3981 26.031V25.51C81.8151 25.493 82.1181 25.441 82.3101 25.354C82.5011 25.267 82.597 25.137 82.597 24.963C82.597 24.789 82.5101 24.581 82.3361 24.337L78.5321 18.605C78.0281 17.841 77.6021 17.342 77.2551 17.107C76.9071 16.873 76.4211 16.738 75.7961 16.703V23.269C75.7961 23.929 75.8481 24.407 75.9521 24.702C76.0561 24.997 76.2521 25.197 76.5381 25.301C76.8251 25.405 77.2811 25.475 77.9061 25.509V26.03C77.1071 25.978 76.0041 25.952 74.597 25.952C73.1031 25.952 71.9921 25.978 71.2621 26.03V25.509C71.8871 25.474 72.3431 25.405 72.6301 25.301C72.7675 25.2535 72.892 25.1746 72.9937 25.0707C73.0955 24.9667 73.1716 24.8405 73.2161 24.702C73.3201 24.407 73.3721 23.929 73.3721 23.269V10.346C73.3721 9.686 73.3201 9.208 73.2161 8.913C73.1716 8.77453 73.0955 8.64831 72.9937 8.54434C72.892 8.44038 72.7675 8.36151 72.6301 8.314C72.3431 8.21 71.8871 8.14 71.2621 8.106V7.584C71.9921 7.636 73.1031 7.662 74.597 7.662C75.987 7.662 77.0891 7.636 77.9061 7.584V8.105C77.2811 8.14 76.8251 8.209 76.5381 8.313C76.4009 8.36109 76.2766 8.44028 76.1752 8.54437C76.0737 8.64846 75.9977 8.77463 75.9531 8.913C75.8491 9.208 75.7971 9.686 75.7971 10.346V16.183C77.0651 16.131 78.0551 15.645 78.7671 14.724L81.2691 11.545C82.1551 10.451 82.5981 9.617 82.5981 9.044C82.5981 8.436 82.0591 8.123 80.9821 8.106V7.584C81.9721 7.636 82.9711 7.662 83.9781 7.662C84.9331 7.662 85.6721 7.636 86.1931 7.584V8.105C85.6245 8.19057 85.0766 8.38043 84.5771 8.665C84.0731 8.951 83.5871 9.399 83.1181 10.007L78.8711 15.453L84.916 23.921C85.211 24.356 85.5371 24.699 85.8931 24.95ZM97.9051 22.905C97.5921 23.861 97.0061 24.681 96.1461 25.367C95.2861 26.053 94.2481 26.396 93.0321 26.396C91.7991 26.396 90.7301 26.113 89.8271 25.549C88.9241 24.985 88.2331 24.194 87.7551 23.178C87.2771 22.162 87.0391 20.985 87.0391 19.647C87.0391 18.136 87.2821 16.824 87.7691 15.712C88.2551 14.601 88.9411 13.745 89.8271 13.146C90.7131 12.547 91.7461 12.247 92.9281 12.247C94.4921 12.247 95.6941 12.721 96.5371 13.667C97.3791 14.614 97.8011 16.051 97.8011 17.979H89.6451C89.5898 18.5332 89.5637 19.09 89.5671 19.647C89.5671 20.793 89.7531 21.792 90.1271 22.643C90.5001 23.494 90.9961 24.15 91.6121 24.61C92.2281 25.07 92.8761 25.3 93.5531 25.3C94.3871 25.3 95.1251 25.1 95.7681 24.701C96.4101 24.302 96.9491 23.633 97.3841 22.695L97.9051 22.905ZM90.7141 13.942C90.1231 14.741 89.7581 15.922 89.6201 17.485H95.3001C95.3351 16.13 95.1391 15.001 94.7141 14.098C94.2881 13.195 93.6591 12.743 92.8251 12.743C92.0081 12.743 91.3041 13.143 90.7141 13.942ZM110.049 22.905C109.736 23.861 109.15 24.681 108.29 25.367C107.43 26.053 106.392 26.396 105.176 26.396C103.943 26.396 102.874 26.113 101.971 25.549C101.068 24.985 100.377 24.194 99.8991 23.178C99.4211 22.162 99.1831 20.985 99.1831 19.647C99.1831 18.136 99.4261 16.824 99.9131 15.712C100.399 14.601 101.085 13.745 101.971 13.146C102.857 12.547 103.89 12.247 105.072 12.247C106.636 12.247 107.838 12.721 108.681 13.667C109.523 14.614 109.945 16.051 109.945 17.979H101.789C101.734 18.5332 101.708 19.09 101.711 19.647C101.711 20.793 101.897 21.792 102.271 22.643C102.644 23.494 103.14 24.15 103.756 24.61C104.372 25.07 105.02 25.3 105.697 25.3C106.531 25.3 107.269 25.1 107.912 24.701C108.554 24.302 109.093 23.633 109.528 22.695L110.049 22.905ZM102.858 13.942C102.267 14.741 101.902 15.922 101.764 17.485H107.444C107.479 16.13 107.283 15.001 106.858 14.098C106.432 13.195 105.803 12.743 104.969 12.743C104.152 12.743 103.448 13.143 102.858 13.942ZM114.729 23.608C114.729 24.321 114.876 24.811 115.172 25.08C115.467 25.35 115.98 25.484 116.709 25.484V26.031C115.111 25.962 114.06 25.927 113.556 25.927C113.052 25.927 112.001 25.962 110.403 26.031V25.484C111.133 25.484 111.645 25.349 111.94 25.08C112.235 24.811 112.383 24.32 112.383 23.608V8.731C112.383 7.932 112.235 7.35 111.94 6.985C111.644 6.62 111.132 6.438 110.403 6.438V5.891C110.941 5.943 111.48 5.969 112.018 5.969C113.112 5.969 114.016 5.848 114.728 5.604L114.729 23.608Z" fill="black"/>
</g>
<defs>
<clipPath id="clip0_4001_84">
<rect width="116.709" height="30.781" fill="white" transform="translate(0 0.609501)"/>
</clipPath>
</defs>
</svg>
