<svg width="433" height="113" viewBox="0 0 433 113" fill="none" xmlns="http://www.w3.org/2000/svg">
<g clip-path="url(#clip0_419_1005)">
<path d="M188.304 29.7973C185.995 29.9258 184.31 30.1791 183.25 30.5609C182.742 30.7348 182.281 31.0241 181.905 31.4059C181.53 31.7876 181.249 32.2512 181.085 32.7598C180.7 33.8427 180.508 35.5975 180.508 38.0203V85.464C180.508 87.8869 180.7 89.6416 181.085 90.7245C181.469 91.8075 182.193 92.527 183.25 92.8757C184.31 93.2281 185.995 93.4007 188.304 93.4007H195.331C199.31 93.4007 202.343 92.8427 204.426 91.7267C206.51 90.6107 208.036 88.8083 209 86.323C209.964 83.8378 210.67 80.2329 211.117 75.5157H213.33C213.113 78.1249 213.017 80.7426 213.042 83.3605C213.042 86.9948 213.267 91.0769 213.714 95.6032C209.351 95.4124 202.003 95.3169 191.669 95.3169C179.348 95.3169 170.042 95.4124 163.754 95.6032V93.6907C166.063 93.5622 167.748 93.3089 168.808 92.9271C169.316 92.7527 169.776 92.4632 170.152 92.0815C170.527 91.6999 170.809 91.2365 170.973 90.7282C171.357 89.6453 171.549 87.8905 171.549 85.4677V38.024C171.549 35.6011 171.357 33.8464 170.973 32.7635C170.809 32.2551 170.527 31.7918 170.152 31.4101C169.776 31.0285 169.316 30.739 168.808 30.5646C167.748 30.1828 166.063 29.9258 163.754 29.801V27.8847C166.451 28.0756 170.555 28.1711 176.075 28.1711C181.21 28.1711 185.282 28.0756 188.3 27.8847V29.7973H188.304ZM220.667 93.2612C218.709 91.2532 217.73 88.4632 217.73 84.8913C217.73 82.0206 218.513 79.6639 220.087 77.8137C221.63 75.987 223.529 74.4898 225.67 73.4122C227.82 72.3293 230.661 71.1802 234.189 69.9688C237.784 68.7574 240.444 67.6414 242.18 66.6209C243.913 65.6004 244.781 64.2274 244.781 62.5094V56.5771C244.781 52.8804 243.994 50.3438 242.424 48.9708C240.85 47.6016 238.652 46.9151 235.829 46.9151C231.337 46.9151 228.16 48.0641 226.301 50.3585C227.583 50.6778 228.658 51.3496 229.527 52.3665C230.391 53.387 230.827 54.6609 230.827 56.1916C230.827 57.7849 230.314 59.0477 229.287 59.9691C228.259 60.8942 226.944 61.3567 225.341 61.3567C223.542 61.3567 222.197 60.7987 221.299 59.6827C220.401 58.5668 219.951 57.2122 219.951 55.6153C219.951 54.0845 220.32 52.8107 221.059 51.7901C221.798 50.7696 222.902 49.7491 224.38 48.7286C225.921 47.6456 227.879 46.7536 230.251 46.0487C232.785 45.3246 235.413 44.9697 238.05 44.9952C243.056 44.9952 246.843 46.1772 249.41 48.534C251.014 50.0024 252.089 51.7718 252.636 53.8422C253.179 55.9163 253.452 58.6402 253.452 62.0212V88.61C253.452 90.2069 253.677 91.3523 254.124 92.0534C254.572 92.7546 255.344 93.1033 256.434 93.1033C257.202 93.1033 257.926 92.9308 258.598 92.5784C259.271 92.2296 259.995 91.7341 260.763 91.0953L261.824 92.7215C260.154 93.999 258.728 94.9058 257.538 95.4491C256.349 95.9887 254.86 96.264 253.06 96.264C249.979 96.264 247.829 95.5005 246.61 93.9697C245.391 92.4389 244.781 90.3684 244.781 87.751C242.856 90.9411 240.643 93.1547 238.138 94.3992C235.634 95.6436 232.811 96.264 229.667 96.264C225.625 96.275 222.622 95.2729 220.667 93.2612ZM244.781 85.1814V66.4337C244.175 67.3545 243.347 68.1103 242.372 68.6326C241.345 69.2053 239.771 69.9725 237.655 70.9269C235.216 71.9475 233.24 72.9203 231.736 73.8454C230.225 74.7705 228.928 76.0296 227.838 77.6228C226.745 79.2197 226.202 81.2571 226.202 83.7423C226.202 86.613 226.907 88.7826 228.319 90.2473C229.73 91.7157 231.592 92.4462 233.901 92.4462C238.138 92.4499 241.763 90.027 244.781 85.1814ZM319.151 91.6349C320.466 92.56 322.088 93.2465 324.013 93.6907V95.6032C320.166 95.3922 316.313 95.2967 312.46 95.3169C308.995 95.3169 305.688 95.4124 302.544 95.6032V93.6907C304.085 93.6283 305.204 93.4374 305.914 93.118C306.619 92.7986 306.974 92.3214 306.974 91.6827C306.974 91.0439 306.653 90.2803 306.01 89.3846L291.956 68.3426C290.094 65.538 288.52 63.7061 287.238 62.8435C285.952 61.9844 284.157 61.4889 281.848 61.3604V85.464C281.848 87.8869 282.04 89.6416 282.424 90.7245C282.808 91.8075 283.533 92.5417 284.589 92.9234C285.649 93.3052 287.334 93.5622 289.643 93.687V95.5996C286.691 95.4087 282.616 95.3132 277.418 95.3132C271.899 95.3132 267.794 95.4087 265.097 95.5996V93.687C267.406 93.5585 269.091 93.3052 270.151 92.9234C270.659 92.749 271.119 92.4595 271.495 92.0779C271.871 91.6962 272.152 91.2329 272.316 90.7245C272.7 89.6416 272.892 87.8869 272.892 85.464V38.024C272.892 35.6011 272.7 33.8464 272.316 32.7635C272.152 32.2551 271.871 31.7918 271.495 31.4101C271.119 31.0285 270.659 30.739 270.151 30.5646C269.091 30.1828 267.406 29.9258 265.097 29.801V27.8847C267.794 28.0756 271.899 28.1711 277.418 28.1711C282.553 28.1711 286.625 28.0756 289.643 27.8847V29.7973C287.334 29.9258 285.649 30.1791 284.589 30.5609C284.082 30.7374 283.623 31.0281 283.248 31.4102C282.873 31.7924 282.593 32.2555 282.428 32.7635C282.044 33.8464 281.852 35.6011 281.852 38.024V59.4515C286.536 59.2606 290.194 57.4765 292.824 54.0955L302.068 42.4255C305.341 38.4094 306.978 35.3478 306.978 33.2444C306.978 31.0124 304.986 29.8634 301.007 29.801V27.8847C304.665 28.0756 308.356 28.1711 312.076 28.1711C315.604 28.1711 318.334 28.0756 320.259 27.8847V29.7973C318.159 30.1115 316.135 30.8084 314.289 31.8531C312.427 32.903 310.631 34.5476 308.899 36.7795L293.208 56.7717L315.541 87.8575C316.631 89.4544 317.836 90.7135 319.151 91.6349ZM363.529 84.1278C362.373 87.6372 360.208 90.6474 357.03 93.1657C353.853 95.684 350.018 96.9432 345.526 96.9432C340.971 96.9432 337.021 95.9043 333.685 93.8338C330.349 91.7634 327.796 88.8597 326.03 85.13C324.264 81.4002 323.385 77.0795 323.385 72.1677C323.385 66.6209 324.283 61.8046 326.082 57.7224C327.877 53.644 330.412 50.5016 333.685 48.3027C336.958 46.1038 340.775 45.0025 345.142 45.0025C350.92 45.0025 355.361 46.7426 358.475 50.2153C361.586 53.6917 363.145 58.9669 363.145 66.0445H333.013C332.808 68.0792 332.712 70.1231 332.724 72.1677C332.724 76.3747 333.412 80.042 334.793 83.166C336.171 86.29 338.004 88.6982 340.28 90.3868C342.555 92.0754 344.949 92.9198 347.451 92.9198C350.532 92.9198 353.258 92.1856 355.634 90.7209C358.006 89.2561 359.997 86.8003 361.604 83.3569L363.529 84.1278ZM336.962 51.2248C334.779 54.1579 333.43 58.4933 332.92 64.2311H353.905C354.034 59.2569 353.31 55.1124 351.74 51.7975C350.166 48.4826 347.842 46.8233 344.761 46.8233C341.743 46.8233 339.142 48.2917 336.962 51.2248ZM408.395 84.1278C407.238 87.6372 405.073 90.6474 401.896 93.1657C398.719 95.684 394.884 96.9432 390.392 96.9432C385.836 96.9432 381.887 95.9043 378.551 93.8338C375.215 91.7634 372.662 88.8597 370.896 85.13C369.13 81.4002 368.251 77.0795 368.251 72.1677C368.251 66.6209 369.148 61.8046 370.947 57.7224C372.743 53.644 375.277 50.5016 378.551 48.3027C381.824 46.1038 385.64 45.0025 390.007 45.0025C395.785 45.0025 400.226 46.7426 403.341 50.2153C406.451 53.6917 408.01 58.9669 408.01 66.0445H377.878C377.674 68.0792 377.578 70.1231 377.59 72.1677C377.59 76.3747 378.277 80.042 379.659 83.166C381.037 86.29 382.87 88.6982 385.145 90.3868C387.421 92.0754 389.815 92.9198 392.316 92.9198C395.398 92.9198 398.124 92.1856 400.5 90.7209C402.871 89.2561 404.863 86.8003 406.47 83.3569L408.395 84.1278ZM381.828 51.2248C379.644 54.1579 378.296 58.4933 377.786 64.2311H398.771C398.9 59.2569 398.176 55.1124 396.606 51.7975C395.032 48.4826 392.708 46.8233 389.627 46.8233C386.608 46.8233 384.007 48.2917 381.828 51.2248ZM425.685 86.7085C425.685 89.3259 426.228 91.1247 427.322 92.1122C428.411 93.1033 430.307 93.5952 433 93.5952V95.6032C427.096 95.35 423.213 95.2215 421.351 95.2215C419.489 95.2215 415.606 95.35 409.703 95.6032V93.5952C412.4 93.5952 414.291 93.0996 415.381 92.1122C416.471 91.1247 417.018 89.3222 417.018 86.7085V32.0954C417.018 29.1622 416.471 27.0257 415.381 25.6858C414.287 24.3459 412.396 23.6778 409.703 23.6778V21.6698C411.69 21.8607 413.681 21.9561 415.669 21.9561C419.711 21.9561 423.051 21.5119 425.681 20.6162L425.685 86.7085Z" fill="white"/>
<path d="M44.751 89.6085C50.6498 89.6085 55.4318 84.857 55.4318 78.9957C55.4318 73.1344 50.6498 68.3829 44.751 68.3829C38.8522 68.3829 34.0703 73.1344 34.0703 78.9957C34.0703 84.857 38.8522 89.6085 44.751 89.6085Z" fill="white"/>
<path d="M99.5253 49.1213C99.5253 49.1213 69.5668 23.6815 58.646 0L30.2798 58.5521C30.2798 58.5521 44.1932 40.8837 53.8653 33.0755C61.1213 27.224 68.5583 32.121 81.2783 39.7273C93.0305 46.7572 99.5253 49.1213 99.5253 49.1213Z" fill="white"/>
<path d="M68.3293 108.441C68.3293 108.441 48.8225 102.872 38.9398 100.757C28.6617 98.5584 24.7899 94.1642 23.6077 87.7694C22.4255 81.3745 26.6076 51.9847 26.3379 50.0574C26.3379 50.0574 16.7692 73.3461 14.1314 80.2402C11.7152 86.5616 8.30518 94.1385 0 108.705C0 108.705 43.1995 109.703 68.3293 108.441ZM132.377 99.9974C132.377 99.9974 117.558 104.37 103.002 107.655C87.7253 111.106 67.0363 112.996 67.0363 112.996C93.0786 103.903 100.966 92.8096 100.966 92.8096C99.5255 77.5971 87.7143 55.7988 87.7143 55.7988C87.7143 55.7988 112.597 79.5684 132.377 99.9974Z" fill="white"/>
<path d="M63.1055 63.2473C69.0043 63.2473 73.7863 58.4957 73.7863 52.6345C73.7863 46.7732 69.0043 42.0217 63.1055 42.0217C57.2067 42.0217 52.4248 46.7732 52.4248 52.6345C52.4248 58.4957 57.2067 63.2473 63.1055 63.2473Z" fill="white"/>
<path d="M79.0098 92.2296C84.9086 92.2296 89.6906 87.4781 89.6906 81.6168C89.6906 75.7555 84.9086 71.004 79.0098 71.004C73.111 71.004 68.3291 75.7555 68.3291 81.6168C68.3291 87.4781 73.111 92.2296 79.0098 92.2296Z" fill="white"/>
</g>
<defs>
<clipPath id="clip0_419_1005">
<rect width="433" height="113" fill="white"/>
</clipPath>
</defs>
</svg>
