<svg width="300" height="342" viewBox="0 0 300 342" fill="none" xmlns="http://www.w3.org/2000/svg">
<g clip-path="url(#clip0_354_1032)">
<path d="M294.313 239.67C290.937 237.723 272.261 229.296 257.088 224.157C264.578 209.147 268.994 192.353 269.521 174.597H273.169C275.159 174.597 276.768 172.983 276.768 171C276.768 169.017 275.159 167.403 273.169 167.403H269.521C268.994 149.648 264.578 132.854 257.088 117.843C272.261 112.705 290.937 104.283 294.313 102.331C299.951 99.0782 301.688 91.5396 298.197 85.5003C294.706 79.4549 287.307 77.1939 281.669 80.4403C278.293 82.3929 261.65 94.3447 249.604 104.912C240.064 90.5965 227.516 78.4514 212.87 69.3712L214.703 66.1973C215.695 64.4805 215.108 62.2799 213.39 61.2824C211.672 60.285 209.464 60.8774 208.471 62.6003L206.65 65.75C191.846 57.764 175.179 52.8189 157.477 51.7247C160.605 36.0248 162.644 15.6699 162.644 11.7707C162.644 5.26582 156.981 -0.00576782 150 -0.00576782C143.018 -0.00576782 137.355 5.26582 137.355 11.7707C137.355 15.6639 139.388 36.0248 142.522 51.7247C124.826 52.8189 108.153 57.764 93.3489 65.75L91.5278 62.6003C90.5357 60.8834 88.3396 60.291 86.6093 61.2824C84.8912 62.2739 84.2983 64.4744 85.2965 66.1973L87.1296 69.3712C72.4829 78.4514 59.9355 90.5965 50.3949 104.912C38.3557 94.3447 21.7126 82.393 18.3368 80.4463C12.6983 77.1939 5.29933 79.4549 1.80857 85.5003C-1.68219 91.5457 0.060162 99.0782 5.69257 102.331C9.06839 104.277 27.7382 112.699 42.9173 117.843C35.4276 132.854 31.0172 149.648 30.4849 167.403H26.8368C24.8464 167.403 23.2371 169.011 23.2371 171C23.2371 172.989 24.8464 174.597 26.8368 174.597H30.4849C31.0112 192.353 35.4215 209.147 42.9173 224.157C27.7443 229.296 9.06839 237.717 5.69257 239.664C0.0541126 242.916 -1.68219 250.455 1.80857 256.494C5.29933 262.54 12.7043 264.801 18.3368 261.548C21.7126 259.602 38.3557 247.644 50.3949 237.083C59.9355 251.398 72.4829 263.543 87.1296 272.623L85.2965 275.791C84.3043 277.508 84.8912 279.709 86.6093 280.706C87.178 281.033 87.7951 281.19 88.4061 281.19C89.6524 281.19 90.8624 280.549 91.5278 279.388L93.3489 276.239C108.153 284.224 124.82 289.17 142.522 290.264C139.394 305.964 137.355 326.319 137.355 330.218C137.355 336.723 143.018 341.994 150 341.994C156.981 341.994 162.644 336.723 162.644 330.218C162.644 326.325 160.611 305.964 157.477 290.264C175.173 289.17 191.846 284.224 206.65 276.239L208.471 279.388C209.137 280.543 210.347 281.19 211.593 281.19C212.204 281.19 212.821 281.039 213.39 280.706C215.108 279.715 215.701 277.514 214.703 275.791L212.87 272.623C227.516 263.543 240.064 251.398 249.604 237.083C261.644 247.65 278.287 259.602 281.669 261.548C287.307 264.801 294.706 262.54 298.197 256.494C301.688 250.449 299.951 242.916 294.313 239.664V239.67ZM241.135 217.35L236.319 214.569C242.46 202.473 246.126 188.931 246.652 174.597H252.212C251.68 189.941 247.741 204.431 241.135 217.35ZM161.627 158.063L197.66 95.6989C208.296 102.446 217.419 111.375 224.383 121.857L161.634 158.057L161.627 158.063ZM229.785 131.197C235.297 142.176 238.6 154.436 239.114 167.409H167.024L229.785 131.197ZM155.396 154.466V82.0302C168.343 82.804 180.545 86.3587 191.435 92.0898L155.396 154.466ZM144.597 154.466L108.558 92.0898C119.448 86.3587 131.65 82.804 144.597 82.0302V154.466ZM138.366 158.063L75.6167 121.857C82.5741 111.375 91.6972 102.452 102.333 95.6989L138.36 158.063H138.366ZM132.969 167.403H60.8793C61.3996 154.436 64.7028 142.176 70.2082 131.197L132.969 167.403ZM132.969 174.597L70.2142 210.803C64.7028 199.825 61.3996 187.565 60.8854 174.597H132.969ZM138.372 183.937L102.339 246.302C91.7033 239.555 82.5801 230.626 75.6167 220.143L138.372 183.937ZM144.597 187.534V259.97C131.65 259.19 119.448 255.642 108.558 249.911L144.597 187.534ZM155.396 187.534L191.435 249.911C180.545 255.642 168.343 259.19 155.396 259.97V187.534ZM161.627 183.937L224.383 220.143C217.419 230.626 208.302 239.555 197.66 246.302L161.627 183.937ZM167.03 174.597H239.114C238.594 187.565 235.29 199.825 229.785 210.803L167.03 174.597ZM246.646 167.403C246.114 153.064 242.447 139.522 236.313 127.425L241.129 124.644C247.735 137.563 251.667 152.054 252.206 167.397H246.646V167.403ZM235.72 115.316L230.904 118.097C223.269 106.478 213.202 96.5996 201.429 89.1819L204.212 84.3698C216.826 92.2832 227.595 102.863 235.726 115.322L235.72 115.316ZM195.204 85.5728C183.201 79.207 169.71 75.2836 155.396 74.4916V68.9238C170.72 69.7218 185.161 73.9173 197.987 80.7607L195.204 85.5728ZM144.597 68.9238V74.4916C130.283 75.2836 116.792 79.201 104.789 85.5728L102.006 80.7607C114.832 73.9233 129.267 69.7218 144.597 68.9238ZM95.7869 84.3637L98.5699 89.1759C86.7969 96.5936 76.7299 106.472 69.095 118.091L64.2793 115.31C72.4164 102.851 83.1791 92.2711 95.793 84.3577L95.7869 84.3637ZM58.8647 124.65L63.6804 127.431C57.5398 139.522 53.8736 153.07 53.3472 167.403H47.7874C48.3198 152.06 52.2583 137.569 58.8647 124.65ZM53.3472 174.597C53.8796 188.937 57.5398 202.473 63.6804 214.569L58.8587 217.35C52.2522 204.431 48.3198 189.941 47.7874 174.597H53.3472ZM64.2733 226.684L69.089 223.904C76.7239 235.523 86.7908 245.401 98.5699 252.819L95.7869 257.631C83.173 249.717 72.4043 239.138 64.2672 226.678L64.2733 226.684ZM104.795 256.428C116.798 262.794 130.289 266.717 144.603 267.509V273.077C129.279 272.279 114.838 268.083 102.012 261.24L104.795 256.428ZM155.396 273.077V267.509C169.71 266.717 183.195 262.8 195.204 256.428L197.987 261.24C185.161 268.077 170.726 272.273 155.396 273.077ZM204.206 257.631L201.423 252.819C213.196 245.401 223.263 235.523 230.898 223.904L235.714 226.684C227.583 239.144 216.814 249.723 204.2 257.637L204.206 257.631Z" fill="url(#paint0_linear_354_1032)"/>
<path d="M145.765 59.3595C145.765 57.0261 147.659 55.134 150 55.134C152.341 55.134 154.235 57.0261 154.235 59.3595C154.235 61.6929 152.341 63.591 150 63.591C147.659 63.591 145.765 61.6989 145.765 59.3595Z" fill="#C9BC9C"/>
<path d="M145.765 282.64C145.765 280.301 147.659 278.409 150 278.409C152.341 278.409 154.235 280.301 154.235 282.64C154.235 284.979 152.341 286.866 150 286.866C147.659 286.866 145.765 284.973 145.765 282.64Z" fill="#C9BC9C"/>
<path d="M51.1273 118.84C49.1066 117.673 48.4109 115.086 49.5785 113.067C50.7461 111.048 53.3415 110.353 55.3622 111.519C57.3889 112.686 58.0846 115.273 56.9109 117.292C55.7433 119.311 53.154 120.007 51.1273 118.84Z" fill="#C9BC9C"/>
<path d="M244.638 230.48C242.611 229.313 241.921 226.726 243.089 224.707C244.257 222.688 246.846 221.993 248.873 223.16C250.899 224.326 251.595 226.914 250.421 228.933C249.254 230.952 246.665 231.647 244.638 230.48Z" fill="#C9BC9C"/>
<path d="M55.3561 230.48C53.3355 231.647 50.7462 230.952 49.5725 228.939C48.4109 226.914 49.1006 224.326 51.1273 223.16C53.154 221.993 55.7373 222.682 56.9049 224.701C58.0725 226.726 57.3768 229.307 55.3561 230.48Z" fill="#C9BC9C"/>
<path d="M248.867 118.84C246.84 120.007 244.257 119.311 243.083 117.298C241.915 115.273 242.611 112.692 244.638 111.519C246.658 110.353 249.248 111.042 250.415 113.061C251.583 115.086 250.887 117.673 248.867 118.84Z" fill="#C9BC9C"/>
<path d="M150 160.251C144.071 160.251 139.243 165.076 139.243 171C139.243 176.924 144.071 181.749 150 181.749C155.929 181.749 160.757 176.924 160.757 171C160.757 165.076 155.929 160.251 150 160.251Z" fill="#C9BC9C"/>
<path d="M150 154.611C140.943 154.611 133.599 161.95 133.599 171C133.599 180.05 140.943 187.389 150 187.389C159.057 187.389 166.401 180.05 166.401 171C166.401 161.95 159.057 154.611 150 154.611ZM150 184.741C142.407 184.741 136.249 178.587 136.249 171C136.249 163.413 142.407 157.259 150 157.259C157.593 157.259 163.751 163.413 163.751 171C163.751 178.587 157.593 184.741 150 184.741Z" fill="#C9BC9C"/>
</g>
<defs>
<linearGradient id="paint0_linear_354_1032" x1="20.6418" y1="16.607" x2="210.255" y2="243.253" gradientUnits="userSpaceOnUse">
<stop stop-color="#C9BC9C"/>
<stop offset="1" stop-color="#C9A063"/>
</linearGradient>
<clipPath id="clip0_354_1032">
<rect width="300" height="342" fill="white"/>
</clipPath>
</defs>
</svg>
