<svg width="98" height="37" viewBox="0 0 98 37" fill="none" xmlns="http://www.w3.org/2000/svg">
<rect width="98" height="37" rx="18.5" fill="white"/>
<mask id="mask0_491_4229" style="mask-type:alpha" maskUnits="userSpaceOnUse" x="5" y="6" width="24" height="25">
<rect x="5" y="6.5" width="24" height="24" fill="#D9D9D9"/>
</mask>
<g mask="url(#mask0_491_4229)">
<path d="M15 24.5L9 18.5L15 12.5L16.4 13.95L12.85 17.5H25V19.5H12.85L16.4 23.05L15 24.5Z" fill="#1C1B1F"/>
</g>
<g clip-path="url(#clip0_491_4229)">
<path fill-rule="evenodd" clip-rule="evenodd" d="M56.1014 15.9018C56.1014 15.9018 56.9658 13.9714 58.038 13.9689C59.1077 13.9664 59.9797 14.8283 59.9822 15.8943C59.9873 17.8271 59.9949 20.8361 60 23.1016C60.005 25.095 59.3257 27.0304 58.0786 28.5903C57.7059 29.0566 57.4296 29.4018 57.4296 29.4018L57.4347 31.9723L45.7947 32L45.7896 29.4295C45.7896 29.4295 45.5184 29.1599 45.1762 28.8247C44.2991 27.9553 43.6248 26.9069 43.2015 25.7502C42.6945 24.3642 41.9468 23.0764 40.9886 21.9475C40.3016 21.1385 39.1559 19.7903 38.4715 18.9788C38.1039 18.5454 37.9392 17.9758 38.0203 17.4139C38.1014 16.8519 38.4182 16.3504 38.8923 16.0379C39.6857 15.5112 40.8111 15.7456 41.4854 16.4134C42.6312 17.5474 44.4689 19.3669 44.4689 19.3669L44.4385 6.9329C44.436 5.86943 45.3029 5.00253 46.3751 5.00001C47.4448 4.99749 48.3168 5.85935 48.3194 6.92534C48.3295 11.3027 48.332 12.7114 48.332 12.7114C48.332 12.7114 49.1964 10.781 50.2687 10.7785C51.3384 10.776 52.2104 11.6379 52.2129 12.7038C52.218 14.3117 52.2154 13.9891 52.2154 13.9891C52.2154 13.9891 53.0798 12.0587 54.1521 12.0562C55.2218 12.0537 56.0938 12.9155 56.0963 13.9815L56.1014 15.9094V15.9018Z" stroke="black" stroke-width="2" stroke-linecap="round" stroke-linejoin="round"/>
</g>
<mask id="mask1_491_4229" style="mask-type:alpha" maskUnits="userSpaceOnUse" x="69" y="6" width="24" height="25">
<rect x="69" y="6.5" width="24" height="24" fill="#D9D9D9"/>
</mask>
<g mask="url(#mask1_491_4229)">
<path d="M83 24.5L81.6 23.05L85.15 19.5H73V17.5H85.15L81.6 13.95L83 12.5L89 18.5L83 24.5Z" fill="#1C1B1F"/>
</g>
<defs>
<clipPath id="clip0_491_4229">
<rect width="24" height="29" fill="white" transform="translate(37 4)"/>
</clipPath>
</defs>
</svg>
