<svg width="156" height="158" viewBox="0 0 156 158" fill="none" xmlns="http://www.w3.org/2000/svg">
<g clip-path="url(#clip0_262_902)">
<path d="M0.101551 113.905C0.101551 113.905 0.476736 98.9104 6.96074 86.066C11.3481 77.3718 21.2882 59.4303 21.2882 59.4303C20.8733 62.7177 20.3436 72.6685 20.4275 78.5443C20.4849 82.6945 21.2441 93.5346 21.2441 93.5346C21.2441 93.5346 13.8155 98.1759 10.8273 101.229C5.59243 106.574 -0.90481 115.122 0.10597 113.905H0.101551Z" fill="url(#paint0_linear_262_902)"/>
<path d="M22.449 93.1983C22.449 93.1983 21.2749 80.7919 21.2264 74.5312C21.1778 67.9254 21.8885 59.0056 21.8885 59.0056C21.8885 59.0056 81.679 99.667 89.6019 104.839C97.5248 110.012 111.98 117.976 119.656 120.816C134.615 126.356 147.825 131.09 154.795 131.926C158.233 132.338 153.215 137.585 153.215 137.585C153.215 137.585 147.848 138.483 139.082 137.948C128.908 137.329 107.319 131.422 97.3041 127.86C76.294 120.383 60.6689 108.627 46.9858 101.326C36.8251 95.9061 22.449 93.1983 22.449 93.1983Z" fill="url(#paint1_linear_262_902)"/>
<path d="M40.6916 65.806L82.0541 59.9391L91.8088 59.0099C94.7397 61.4567 131.578 103.693 131.578 103.693C131.578 103.693 140.56 113.786 141.341 115.436C141.77 116.339 140.088 119.095 138.574 122.462C137.219 125.48 136.923 125.44 136.923 125.44C136.923 125.44 128.435 123.166 118.138 118.856C107.249 114.299 98.3193 109.043 91.1909 104.76C86.5298 101.959 75.4863 94.0744 65.0518 87.0349C53.4522 79.2124 42.7088 72.2128 42.0864 71.5004C40.1752 69.3103 40.6872 65.806 40.6872 65.806H40.6916Z" fill="url(#paint2_linear_262_902)"/>
<path d="M54.741 62.731C54.741 62.731 52.9048 56.4924 53.7435 55.0058C54.5821 53.5191 91.672 48.5504 94.7926 50.4441C99.8951 53.5412 138.72 91.0657 132.58 96.8441C131.265 98.083 129.556 99.4546 129.556 99.4546C129.556 99.4546 114.761 81.3583 107.558 74.1861C101.647 68.2971 93.3449 57.3508 91.2571 57.3994C89.1693 57.4481 68.8699 60.6692 64.0587 61.3505C61.1367 61.7664 54.7366 62.731 54.7366 62.731H54.741Z" fill="url(#paint3_linear_262_902)"/>
<path d="M81.8511 48.984C81.8511 48.984 80.7255 44.8249 82.469 44.5329C90.2816 43.2188 94.6293 42.8914 97.2158 44.9002C103.444 49.7406 109.129 54.9129 109.129 54.9129C109.129 54.9129 108.379 58.7445 106.564 58.5543C104.75 58.364 97.6528 49.3557 94.797 48.9796C90.2816 48.3867 81.8555 48.984 81.8555 48.984H81.8511Z" fill="url(#paint4_linear_262_902)"/>
<path d="M140.693 0.756601C145.508 1.53974 150.88 2.4158 151.917 5.92445C152.694 8.56147 150.73 11.6852 148.73 13.2205C146.033 15.2912 142.582 14.9947 139.629 14.7425C137.378 14.5479 137.651 14.216 135.383 13.9815C129.782 13.4063 128.245 15.4416 125.372 14.132C123.492 13.2736 121.925 11.3887 121.581 9.2694C121.108 6.33594 123.143 3.96439 123.554 3.49096C127.729 -1.35832 136.226 0.0265538 140.693 0.756601Z" fill="url(#paint5_linear_262_902)"/>
<path d="M119.969 21.0165C124.913 21.9368 126.776 19.4768 130.227 21.4103C132.911 22.9146 135.091 26.2729 134.765 29.7152C134.359 33.9716 130.17 36.2015 128.254 37.228C125.31 38.812 122.6 38.9536 121.351 39.0067C118.032 39.1438 116.88 37.3342 112.077 36.8298C111.464 36.7634 109.884 36.6218 107.933 37.0289C106.578 37.3121 105.849 37.4625 105.17 38.0156C103.21 39.6173 104.177 42.5242 102.998 42.9578C101.528 43.502 98.8049 39.427 98.6592 39.2013C97.4233 37.3253 97.0217 35.8874 96.4876 34.4538C94.0423 27.9099 91.0673 27.6799 90.9658 24.1712C90.8466 20.083 94.7838 16.9814 95.7019 16.2602C100.403 12.5612 106.061 13.4108 106.551 13.4904C113.075 14.5744 113.274 19.76 119.965 21.0033L119.969 21.0165Z" fill="url(#paint6_linear_262_902)"/>
<path d="M8.48349 144.501C7.4374 141.735 6.41337 138.767 5.50852 135.709C2.76308 126.396 -0.860718 118.051 0.198614 116.263C1.26236 114.48 4.52864 109.423 9.68847 103.981C13.096 100.384 21.2087 94.6628 21.2087 94.6628C21.2087 94.6628 23.323 116.458 24.5015 125.117C26.1964 137.545 27.7678 146.841 29.0345 153.217C20.5202 152.222 14.173 147.996 8.47907 144.496L8.48349 144.501Z" fill="url(#paint7_linear_262_902)"/>
<path d="M119.771 148.589C106.445 152.031 91.0982 161.929 73.5927 156.305C69.1479 154.876 63.0744 151.969 53.3904 151.483C44.3154 151.031 40.8549 153.142 34.1502 153.412C32.8216 153.465 31.5416 153.438 30.3101 153.341C30.1954 152.903 30.0762 152.465 29.957 152.027C27.9487 144.656 22.4755 94.269 22.4755 94.269C22.4755 94.269 35.5936 96.7379 44.2757 101.561C50.6846 105.122 71.9463 117.538 79.9929 121.905C95.4856 130.316 108.767 135.262 130.068 138.7C142.255 140.669 152.094 140.134 152.094 140.134C152.094 140.134 150.452 144.306 148.214 148.97C136.469 146.089 127.133 146.686 119.771 148.589Z" fill="url(#paint8_linear_262_902)"/>
</g>
<defs>
<linearGradient id="paint0_linear_262_902" x1="5.9632" y1="110.37" x2="21.9995" y2="69.4072" gradientUnits="userSpaceOnUse">
<stop stop-color="#C4A976"/>
<stop offset="1" stop-color="#C6B896"/>
</linearGradient>
<linearGradient id="paint1_linear_262_902" x1="132.637" y1="141.346" x2="-24.2513" y2="38.7824" gradientUnits="userSpaceOnUse">
<stop offset="0.03" stop-color="#C4A976"/>
<stop offset="1" stop-color="#EFEFEF"/>
</linearGradient>
<linearGradient id="paint2_linear_262_902" x1="141.408" y1="92.2249" x2="40.6298" y2="92.2249" gradientUnits="userSpaceOnUse">
<stop stop-color="#C9BC9C"/>
<stop offset="1" stop-color="#C9A063"/>
</linearGradient>
<linearGradient id="paint3_linear_262_902" x1="126.171" y1="90.3533" x2="35.0957" y2="30.81" gradientUnits="userSpaceOnUse">
<stop offset="0.03" stop-color="#C4A976"/>
<stop offset="1" stop-color="#EFEFEF"/>
</linearGradient>
<linearGradient id="paint4_linear_262_902" x1="109.124" y1="51.0104" x2="81.4936" y2="51.0104" gradientUnits="userSpaceOnUse">
<stop stop-color="#C9BC9C"/>
<stop offset="1" stop-color="#C9A063"/>
</linearGradient>
<linearGradient class="vapor-top" id="paint5_linear_262_902" x1="145.566" y1="14.0036" x2="117.93" y2="-4.05821" gradientUnits="userSpaceOnUse">
<stop offset="0.03" stop-color="#C4A976"/>
<stop offset="1" stop-color="#EFEFEF"/>
</linearGradient>
<linearGradient class="vapor-bottom" id="paint6_linear_262_902" x1="125.213" y1="38.0819" x2="82.4913" y2="10.1513" gradientUnits="userSpaceOnUse">
<stop offset="0.03" stop-color="#C4A976"/>
<stop offset="1" stop-color="#EFEFEF"/>
</linearGradient>
<linearGradient id="paint7_linear_262_902" x1="29.5466" y1="129.112" x2="-33.0516" y2="88.7343" gradientUnits="userSpaceOnUse">
<stop stop-color="#C9BC9C"/>
<stop offset="1" stop-color="#C9A063"/>
</linearGradient>
<linearGradient id="paint8_linear_262_902" x1="100.019" y1="152.456" x2="-91.2279" y2="29.091" gradientUnits="userSpaceOnUse">
<stop stop-color="#C9BC9C"/>
<stop offset="1" stop-color="#C9A063"/>
</linearGradient>
<clipPath id="clip0_262_902">
<rect width="156" height="158" fill="white" transform="matrix(-1 0 0 1 156 0)"/>
</clipPath>
</defs>
</svg>
